STARTFONT 2.1
FONT -FontForge-Liberation Sans-Book-R-Normal-Sans-13-120-75-75-P-75-ISO10646-1
SIZE 12 75 75
FONTBOUNDINGBOX 14 16 -2 -4
COMMENT "Generated by fontforge, http://fontforge.sourceforge.net"
COMMENT "Digitized data © 2007 Ascender Corporation. All rights reserved."
STARTPROPERTIES 39
FOUNDRY "FontForge"
FAMILY_NAME "Liberation Sans"
WEIGHT_NAME "Book"
SLANT "R"
SETWIDTH_NAME "Normal"
ADD_STYLE_NAME "Sans"
PIXEL_SIZE 13
POINT_SIZE 120
RESOLUTION_X 75
RESOLUTION_Y 75
SPACING "P"
AVERAGE_WIDTH 75
CHARSET_REGISTRY "ISO10646"
CHARSET_ENCODING "1"
FONTNAME_REGISTRY ""
CHARSET_COLLECTIONS "ASCII ISOLatin1Encoding ISO8859-2 ISO8859-5 ISO8859-7 ISO8859-9 ISO8859-4 Symbol ISO10646-1"
FONT_NAME "LiberationSans"
FACE_NAME "Liberation Sans"
FONT_VERSION "1.00"
FONT_ASCENT 10
FONT_DESCENT 3
UNDERLINE_POSITION -2
UNDERLINE_THICKNESS 1
X_HEIGHT 6
CAP_HEIGHT 8
RAW_ASCENT 799
RAW_DESCENT 200
NORM_SPACE 4
RELATIVE_WEIGHT 40
RELATIVE_SETWIDTH 50
SUPERSCRIPT_X 0
SUPERSCRIPT_Y 6
SUPERSCRIPT_SIZE 8
SUBSCRIPT_X 0
SUBSCRIPT_Y 1
SUBSCRIPT_SIZE 8
FIGURE_WIDTH 7
AVG_LOWERCASE_WIDTH 65
AVG_UPPERCASE_WIDTH 88
ENDPROPERTIES
CHARS 668
STARTCHAR space
ENCODING 32
SWIDTH 277 0
DWIDTH 4 0
BBX 1 1 0 0
BITMAP
00
ENDCHAR
STARTCHAR exclam
ENCODING 33
SWIDTH 277 0
DWIDTH 4 0
BBX 1 9 1 0
BITMAP
80
80
80
80
80
80
80
00
80
ENDCHAR
STARTCHAR quotedbl
ENCODING 34
SWIDTH 354 0
DWIDTH 5 0
BBX 3 3 1 6
BITMAP
A0
A0
A0
ENDCHAR
STARTCHAR numbersign
ENCODING 35
SWIDTH 556 0
DWIDTH 7 0
BBX 7 9 0 0
BITMAP
24
24
7E
24
24
48
FE
48
48
ENDCHAR
STARTCHAR dollar
ENCODING 36
SWIDTH 556 0
DWIDTH 7 0
BBX 5 11 1 -1
BITMAP
20
70
A8
A0
A0
70
28
28
A8
70
20
ENDCHAR
STARTCHAR percent
ENCODING 37
SWIDTH 889 0
DWIDTH 12 0
BBX 10 9 1 0
BITMAP
6100
9200
9200
9400
6980
0A40
1240
1240
2180
ENDCHAR
STARTCHAR ampersand
ENCODING 38
SWIDTH 666 0
DWIDTH 9 0
BBX 7 9 1 0
BITMAP
30
48
48
50
62
A2
94
88
76
ENDCHAR
STARTCHAR quotesingle
ENCODING 39
SWIDTH 190 0
DWIDTH 2 0
BBX 1 3 1 6
BITMAP
80
80
80
ENDCHAR
STARTCHAR parenleft
ENCODING 40
SWIDTH 333 0
DWIDTH 4 0
BBX 3 12 1 -3
BITMAP
20
40
40
80
80
80
80
80
80
40
40
20
ENDCHAR
STARTCHAR parenright
ENCODING 41
SWIDTH 333 0
DWIDTH 4 0
BBX 3 12 0 -3
BITMAP
80
40
40
20
20
20
20
20
20
40
40
80
ENDCHAR
STARTCHAR asterisk
ENCODING 42
SWIDTH 389 0
DWIDTH 5 0
BBX 5 5 0 4
BITMAP
20
A8
70
50
88
ENDCHAR
STARTCHAR plus
ENCODING 43
SWIDTH 583 0
DWIDTH 8 0
BBX 7 7 0 1
BITMAP
10
10
10
FE
10
10
10
ENDCHAR
STARTCHAR comma
ENCODING 44
SWIDTH 277 0
DWIDTH 4 0
BBX 2 3 1 -2
BITMAP
40
40
80
ENDCHAR
STARTCHAR hyphen
ENCODING 45
SWIDTH 333 0
DWIDTH 4 0
BBX 2 1 1 3
BITMAP
C0
ENDCHAR
STARTCHAR period
ENCODING 46
SWIDTH 277 0
DWIDTH 4 0
BBX 1 1 2 0
BITMAP
80
ENDCHAR
STARTCHAR slash
ENCODING 47
SWIDTH 277 0
DWIDTH 4 0
BBX 4 9 0 0
BITMAP
10
20
20
20
40
40
40
80
80
ENDCHAR
STARTCHAR zero
ENCODING 48
SWIDTH 556 0
DWIDTH 7 0
BBX 5 9 1 0
BITMAP
70
88
88
88
88
88
88
88
70
ENDCHAR
STARTCHAR one
ENCODING 49
SWIDTH 556 0
DWIDTH 7 0
BBX 5 9 1 0
BITMAP
20
60
A0
20
20
20
20
20
F8
ENDCHAR
STARTCHAR two
ENCODING 50
SWIDTH 556 0
DWIDTH 7 0
BBX 5 9 1 0
BITMAP
70
88
08
08
10
20
40
80
F8
ENDCHAR
STARTCHAR three
ENCODING 51
SWIDTH 556 0
DWIDTH 7 0
BBX 5 9 1 0
BITMAP
70
88
08
08
30
08
08
88
70
ENDCHAR
STARTCHAR four
ENCODING 52
SWIDTH 556 0
DWIDTH 7 0
BBX 6 9 1 0
BITMAP
10
30
30
50
50
90
FC
10
10
ENDCHAR
STARTCHAR five
ENCODING 53
SWIDTH 556 0
DWIDTH 7 0
BBX 5 9 1 0
BITMAP
F8
80
80
F0
88
08
08
88
70
ENDCHAR
STARTCHAR six
ENCODING 54
SWIDTH 556 0
DWIDTH 7 0
BBX 5 9 1 0
BITMAP
70
88
80
B0
C8
88
88
88
70
ENDCHAR
STARTCHAR seven
ENCODING 55
SWIDTH 556 0
DWIDTH 7 0
BBX 5 9 1 0
BITMAP
F8
08
10
20
20
20
40
40
40
ENDCHAR
STARTCHAR eight
ENCODING 56
SWIDTH 556 0
DWIDTH 7 0
BBX 5 9 1 0
BITMAP
70
88
88
88
70
88
88
88
70
ENDCHAR
STARTCHAR nine
ENCODING 57
SWIDTH 556 0
DWIDTH 7 0
BBX 5 9 1 0
BITMAP
70
88
88
88
98
68
08
88
70
ENDCHAR
STARTCHAR colon
ENCODING 58
SWIDTH 277 0
DWIDTH 4 0
BBX 1 7 2 0
BITMAP
80
00
00
00
00
00
80
ENDCHAR
STARTCHAR semicolon
ENCODING 59
SWIDTH 277 0
DWIDTH 4 0
BBX 2 9 1 -2
BITMAP
40
00
00
00
00
00
40
40
80
ENDCHAR
STARTCHAR less
ENCODING 60
SWIDTH 583 0
DWIDTH 8 0
BBX 6 7 1 1
BITMAP
04
18
60
80
60
18
04
ENDCHAR
STARTCHAR equal
ENCODING 61
SWIDTH 583 0
DWIDTH 8 0
BBX 6 4 1 2
BITMAP
FC
00
00
FC
ENDCHAR
STARTCHAR greater
ENCODING 62
SWIDTH 583 0
DWIDTH 8 0
BBX 6 7 1 1
BITMAP
80
60
18
04
18
60
80
ENDCHAR
STARTCHAR question
ENCODING 63
SWIDTH 556 0
DWIDTH 7 0
BBX 5 9 1 0
BITMAP
70
88
08
08
10
20
20
00
20
ENDCHAR
STARTCHAR at
ENCODING 64
SWIDTH 1015 0
DWIDTH 13 0
BBX 11 11 1 -2
BITMAP
0F80
3040
4020
8EA0
91A0
A120
A340
9C80
8000
4080
3F00
ENDCHAR
STARTCHAR A
ENCODING 65
SWIDTH 666 0
DWIDTH 9 0
BBX 9 9 0 0
BITMAP
0800
1400
1400
2200
2200
3E00
4100
4100
8080
ENDCHAR
STARTCHAR B
ENCODING 66
SWIDTH 666 0
DWIDTH 9 0
BBX 7 9 1 0
BITMAP
FC
82
82
82
FC
82
82
82
FC
ENDCHAR
STARTCHAR C
ENCODING 67
SWIDTH 722 0
DWIDTH 9 0
BBX 7 9 1 0
BITMAP
3C
42
80
80
80
80
80
42
3C
ENDCHAR
STARTCHAR D
ENCODING 68
SWIDTH 722 0
DWIDTH 9 0
BBX 7 9 1 0
BITMAP
F8
84
82
82
82
82
82
84
F8
ENDCHAR
STARTCHAR E
ENCODING 69
SWIDTH 666 0
DWIDTH 9 0
BBX 7 9 1 0
BITMAP
FE
80
80
80
FC
80
80
80
FE
ENDCHAR
STARTCHAR F
ENCODING 70
SWIDTH 610 0
DWIDTH 8 0
BBX 6 9 1 0
BITMAP
FC
80
80
80
F8
80
80
80
80
ENDCHAR
STARTCHAR G
ENCODING 71
SWIDTH 777 0
DWIDTH 10 0
BBX 8 9 1 0
BITMAP
3C
42
80
80
8F
81
81
42
3C
ENDCHAR
STARTCHAR H
ENCODING 72
SWIDTH 722 0
DWIDTH 9 0
BBX 7 9 1 0
BITMAP
82
82
82
82
FE
82
82
82
82
ENDCHAR
STARTCHAR I
ENCODING 73
SWIDTH 277 0
DWIDTH 4 0
BBX 1 9 1 0
BITMAP
80
80
80
80
80
80
80
80
80
ENDCHAR
STARTCHAR J
ENCODING 74
SWIDTH 500 0
DWIDTH 6 0
BBX 5 9 0 0
BITMAP
38
08
08
08
08
08
08
88
70
ENDCHAR
STARTCHAR K
ENCODING 75
SWIDTH 666 0
DWIDTH 9 0
BBX 8 9 1 0
BITMAP
82
84
88
90
B0
C8
84
82
81
ENDCHAR
STARTCHAR L
ENCODING 76
SWIDTH 556 0
DWIDTH 7 0
BBX 5 9 1 0
BITMAP
80
80
80
80
80
80
80
80
F8
ENDCHAR
STARTCHAR M
ENCODING 77
SWIDTH 833 0
DWIDTH 11 0
BBX 9 9 1 0
BITMAP
8080
C180
C180
A280
A280
9480
9480
8880
8880
ENDCHAR
STARTCHAR N
ENCODING 78
SWIDTH 722 0
DWIDTH 9 0
BBX 7 9 1 0
BITMAP
82
C2
A2
A2
92
8A
8A
86
82
ENDCHAR
STARTCHAR O
ENCODING 79
SWIDTH 777 0
DWIDTH 10 0
BBX 8 9 1 0
BITMAP
3C
42
81
81
81
81
81
42
3C
ENDCHAR
STARTCHAR P
ENCODING 80
SWIDTH 666 0
DWIDTH 9 0
BBX 7 9 1 0
BITMAP
FC
82
82
82
FC
80
80
80
80
ENDCHAR
STARTCHAR Q
ENCODING 81
SWIDTH 777 0
DWIDTH 10 0
BBX 8 11 1 -2
BITMAP
3C
42
81
81
81
81
81
42
3C
08
06
ENDCHAR
STARTCHAR R
ENCODING 82
SWIDTH 722 0
DWIDTH 9 0
BBX 7 9 1 0
BITMAP
FC
82
82
82
FC
90
88
84
82
ENDCHAR
STARTCHAR S
ENCODING 83
SWIDTH 666 0
DWIDTH 9 0
BBX 7 9 1 0
BITMAP
7C
82
80
80
7C
02
02
82
7C
ENDCHAR
STARTCHAR T
ENCODING 84
SWIDTH 610 0
DWIDTH 8 0
BBX 7 9 0 0
BITMAP
FE
10
10
10
10
10
10
10
10
ENDCHAR
STARTCHAR U
ENCODING 85
SWIDTH 722 0
DWIDTH 9 0
BBX 7 9 1 0
BITMAP
82
82
82
82
82
82
82
44
38
ENDCHAR
STARTCHAR V
ENCODING 86
SWIDTH 666 0
DWIDTH 9 0
BBX 9 9 0 0
BITMAP
8080
4100
4100
2200
2200
2200
1400
1400
0800
ENDCHAR
STARTCHAR W
ENCODING 87
SWIDTH 943 0
DWIDTH 12 0
BBX 13 9 0 0
BITMAP
8208
4210
4510
4510
28A0
28A0
28A0
1040
1040
ENDCHAR
STARTCHAR X
ENCODING 88
SWIDTH 666 0
DWIDTH 9 0
BBX 7 9 0 0
BITMAP
82
44
28
30
10
28
28
44
82
ENDCHAR
STARTCHAR Y
ENCODING 89
SWIDTH 666 0
DWIDTH 9 0
BBX 7 9 1 0
BITMAP
82
44
48
28
10
10
10
10
10
ENDCHAR
STARTCHAR Z
ENCODING 90
SWIDTH 610 0
DWIDTH 8 0
BBX 5 9 1 0
BITMAP
F8
08
10
10
20
40
40
80
F8
ENDCHAR
STARTCHAR bracketleft
ENCODING 91
SWIDTH 277 0
DWIDTH 4 0
BBX 3 12 1 -3
BITMAP
E0
80
80
80
80
80
80
80
80
80
80
E0
ENDCHAR
STARTCHAR backslash
ENCODING 92
SWIDTH 277 0
DWIDTH 4 0
BBX 4 9 0 0
BITMAP
80
80
40
40
40
20
20
10
10
ENDCHAR
STARTCHAR bracketright
ENCODING 93
SWIDTH 277 0
DWIDTH 4 0
BBX 3 12 0 -3
BITMAP
E0
20
20
20
20
20
20
20
20
20
20
E0
ENDCHAR
STARTCHAR asciicircum
ENCODING 94
SWIDTH 469 0
DWIDTH 6 0
BBX 5 5 0 4
BITMAP
20
50
50
90
88
ENDCHAR
STARTCHAR underscore
ENCODING 95
SWIDTH 556 0
DWIDTH 7 0
BBX 7 1 0 -3
BITMAP
FE
ENDCHAR
STARTCHAR grave
ENCODING 96
SWIDTH 333 0
DWIDTH 4 0
BBX 2 2 1 8
BITMAP
80
40
ENDCHAR
STARTCHAR a
ENCODING 97
SWIDTH 556 0
DWIDTH 7 0
BBX 6 7 1 0
BITMAP
70
88
08
78
88
98
64
ENDCHAR
STARTCHAR b
ENCODING 98
SWIDTH 556 0
DWIDTH 7 0
BBX 5 9 1 0
BITMAP
80
80
B0
C8
88
88
88
88
F0
ENDCHAR
STARTCHAR c
ENCODING 99
SWIDTH 500 0
DWIDTH 6 0
BBX 5 7 1 0
BITMAP
70
88
80
80
80
88
70
ENDCHAR
STARTCHAR d
ENCODING 100
SWIDTH 556 0
DWIDTH 7 0
BBX 5 9 1 0
BITMAP
08
08
68
98
88
88
88
88
78
ENDCHAR
STARTCHAR e
ENCODING 101
SWIDTH 556 0
DWIDTH 7 0
BBX 5 7 1 0
BITMAP
70
88
88
F8
80
88
70
ENDCHAR
STARTCHAR f
ENCODING 102
SWIDTH 277 0
DWIDTH 4 0
BBX 3 9 0 0
BITMAP
20
40
E0
40
40
40
40
40
40
ENDCHAR
STARTCHAR g
ENCODING 103
SWIDTH 556 0
DWIDTH 7 0
BBX 5 10 1 -3
BITMAP
68
98
88
88
88
98
68
08
88
70
ENDCHAR
STARTCHAR h
ENCODING 104
SWIDTH 556 0
DWIDTH 7 0
BBX 5 9 1 0
BITMAP
80
80
B0
C8
88
88
88
88
88
ENDCHAR
STARTCHAR i
ENCODING 105
SWIDTH 222 0
DWIDTH 3 0
BBX 1 9 1 0
BITMAP
80
00
80
80
80
80
80
80
80
ENDCHAR
STARTCHAR j
ENCODING 106
SWIDTH 222 0
DWIDTH 3 0
BBX 2 12 0 -3
BITMAP
40
00
40
40
40
40
40
40
40
40
40
80
ENDCHAR
STARTCHAR k
ENCODING 107
SWIDTH 500 0
DWIDTH 6 0
BBX 6 9 1 0
BITMAP
80
80
88
90
A0
E0
90
88
84
ENDCHAR
STARTCHAR l
ENCODING 108
SWIDTH 222 0
DWIDTH 3 0
BBX 1 9 1 0
BITMAP
80
80
80
80
80
80
80
80
80
ENDCHAR
STARTCHAR m
ENCODING 109
SWIDTH 833 0
DWIDTH 11 0
BBX 9 7 1 0
BITMAP
B300
CC80
8880
8880
8880
8880
8880
ENDCHAR
STARTCHAR n
ENCODING 110
SWIDTH 556 0
DWIDTH 7 0
BBX 5 7 1 0
BITMAP
B0
C8
88
88
88
88
88
ENDCHAR
STARTCHAR o
ENCODING 111
SWIDTH 556 0
DWIDTH 7 0
BBX 5 7 1 0
BITMAP
70
88
88
88
88
88
70
ENDCHAR
STARTCHAR p
ENCODING 112
SWIDTH 556 0
DWIDTH 7 0
BBX 5 10 1 -3
BITMAP
B0
C8
88
88
88
88
F0
80
80
80
ENDCHAR
STARTCHAR q
ENCODING 113
SWIDTH 556 0
DWIDTH 7 0
BBX 5 10 1 -3
BITMAP
68
98
88
88
88
88
78
08
08
08
ENDCHAR
STARTCHAR r
ENCODING 114
SWIDTH 333 0
DWIDTH 4 0
BBX 3 7 1 0
BITMAP
E0
80
80
80
80
80
80
ENDCHAR
STARTCHAR s
ENCODING 115
SWIDTH 500 0
DWIDTH 6 0
BBX 5 7 1 0
BITMAP
70
88
80
70
08
88
70
ENDCHAR
STARTCHAR t
ENCODING 116
SWIDTH 277 0
DWIDTH 4 0
BBX 4 9 0 0
BITMAP
40
40
F0
40
40
40
40
40
30
ENDCHAR
STARTCHAR u
ENCODING 117
SWIDTH 556 0
DWIDTH 7 0
BBX 5 7 1 0
BITMAP
88
88
88
88
88
88
78
ENDCHAR
STARTCHAR v
ENCODING 118
SWIDTH 500 0
DWIDTH 6 0
BBX 5 7 0 0
BITMAP
88
88
88
50
50
50
20
ENDCHAR
STARTCHAR w
ENCODING 119
SWIDTH 722 0
DWIDTH 9 0
BBX 9 7 0 0
BITMAP
8880
8880
5500
5500
5500
2200
2200
ENDCHAR
STARTCHAR x
ENCODING 120
SWIDTH 500 0
DWIDTH 6 0
BBX 5 7 1 0
BITMAP
88
50
50
20
50
50
88
ENDCHAR
STARTCHAR y
ENCODING 121
SWIDTH 500 0
DWIDTH 6 0
BBX 7 10 0 -3
BITMAP
82
82
44
44
28
28
10
10
20
C0
ENDCHAR
STARTCHAR z
ENCODING 122
SWIDTH 500 0
DWIDTH 6 0
BBX 5 7 1 0
BITMAP
F8
08
10
20
40
80
F8
ENDCHAR
STARTCHAR braceleft
ENCODING 123
SWIDTH 333 0
DWIDTH 4 0
BBX 4 12 0 -3
BITMAP
30
40
40
40
40
80
40
40
40
40
40
30
ENDCHAR
STARTCHAR bar
ENCODING 124
SWIDTH 259 0
DWIDTH 3 0
BBX 1 12 1 -3
BITMAP
80
80
80
80
80
80
80
80
80
80
80
80
ENDCHAR
STARTCHAR braceright
ENCODING 125
SWIDTH 333 0
DWIDTH 4 0
BBX 4 12 0 -3
BITMAP
C0
20
20
20
20
10
20
20
20
20
20
C0
ENDCHAR
STARTCHAR asciitilde
ENCODING 126
SWIDTH 583 0
DWIDTH 8 0
BBX 5 2 1 4
BITMAP
60
98
ENDCHAR
STARTCHAR space.dup1
ENCODING 160
SWIDTH 277 0
DWIDTH 4 0
BBX 1 1 0 0
BITMAP
00
ENDCHAR
STARTCHAR exclamdown
ENCODING 161
SWIDTH 333 0
DWIDTH 4 0
BBX 1 9 1 -2
BITMAP
80
00
80
80
80
80
80
80
80
ENDCHAR
STARTCHAR cent
ENCODING 162
SWIDTH 556 0
DWIDTH 7 0
BBX 5 9 1 0
BITMAP
20
70
88
80
80
80
88
70
20
ENDCHAR
STARTCHAR sterling
ENCODING 163
SWIDTH 556 0
DWIDTH 7 0
BBX 6 9 1 0
BITMAP
38
44
40
40
F0
40
40
44
F8
ENDCHAR
STARTCHAR currency
ENCODING 164
SWIDTH 556 0
DWIDTH 7 0
BBX 6 6 1 1
BITMAP
B4
48
84
84
48
B4
ENDCHAR
STARTCHAR yen
ENCODING 165
SWIDTH 556 0
DWIDTH 7 0
BBX 7 9 0 0
BITMAP
82
44
28
28
7C
10
7C
10
10
ENDCHAR
STARTCHAR brokenbar
ENCODING 166
SWIDTH 259 0
DWIDTH 3 0
BBX 1 12 1 -3
BITMAP
80
80
80
80
80
00
00
80
80
80
80
80
ENDCHAR
STARTCHAR section
ENCODING 167
SWIDTH 556 0
DWIDTH 7 0
BBX 5 10 1 -1
BITMAP
70
88
80
70
88
88
70
08
88
70
ENDCHAR
STARTCHAR dieresis
ENCODING 168
SWIDTH 333 0
DWIDTH 4 0
BBX 3 1 0 8
BITMAP
A0
ENDCHAR
STARTCHAR copyright
ENCODING 169
SWIDTH 736 0
DWIDTH 10 0
BBX 9 9 0 0
BITMAP
3E00
4100
9C80
A280
A080
A280
9C80
4100
3E00
ENDCHAR
STARTCHAR ordfeminine
ENCODING 170
SWIDTH 370 0
DWIDTH 5 0
BBX 4 5 0 4
BITMAP
C0
20
60
A0
50
ENDCHAR
STARTCHAR guillemotleft
ENCODING 171
SWIDTH 556 0
DWIDTH 7 0
BBX 6 5 0 1
BITMAP
24
48
90
48
24
ENDCHAR
STARTCHAR logicalnot
ENCODING 172
SWIDTH 583 0
DWIDTH 8 0
BBX 6 4 1 1
BITMAP
FC
04
04
04
ENDCHAR
STARTCHAR hyphen.dup2
ENCODING 173
SWIDTH 333 0
DWIDTH 4 0
BBX 2 1 1 3
BITMAP
C0
ENDCHAR
STARTCHAR registered
ENCODING 174
SWIDTH 736 0
DWIDTH 10 0
BBX 9 9 0 0
BITMAP
3E00
4100
9C80
9280
9C80
9480
9280
4100
3E00
ENDCHAR
STARTCHAR macron
ENCODING 175
SWIDTH 552 0
DWIDTH 7 0
BBX 7 1 0 9
BITMAP
FE
ENDCHAR
STARTCHAR degree
ENCODING 176
SWIDTH 399 0
DWIDTH 5 0
BBX 4 4 1 5
BITMAP
60
90
90
60
ENDCHAR
STARTCHAR plusminus
ENCODING 177
SWIDTH 548 0
DWIDTH 7 0
BBX 7 8 0 0
BITMAP
10
10
10
FE
10
10
10
FE
ENDCHAR
STARTCHAR uni00B2
ENCODING 178
SWIDTH 333 0
DWIDTH 4 0
BBX 4 5 0 4
BITMAP
60
10
20
40
F0
ENDCHAR
STARTCHAR uni00B3
ENCODING 179
SWIDTH 333 0
DWIDTH 4 0
BBX 4 5 0 4
BITMAP
E0
10
60
10
E0
ENDCHAR
STARTCHAR acute
ENCODING 180
SWIDTH 333 0
DWIDTH 4 0
BBX 2 2 1 8
BITMAP
40
80
ENDCHAR
STARTCHAR mu
ENCODING 181
SWIDTH 576 0
DWIDTH 7 0
BBX 6 10 1 -3
BITMAP
88
88
88
88
88
88
F4
80
80
80
ENDCHAR
STARTCHAR paragraph
ENCODING 182
SWIDTH 537 0
DWIDTH 7 0
BBX 6 11 1 -2
BITMAP
7C
E8
E8
E8
68
28
28
28
28
28
28
ENDCHAR
STARTCHAR periodcentered
ENCODING 183
SWIDTH 277 0
DWIDTH 4 0
BBX 1 1 1 3
BITMAP
80
ENDCHAR
STARTCHAR cedilla
ENCODING 184
SWIDTH 333 0
DWIDTH 4 0
BBX 2 3 1 -3
BITMAP
80
40
80
ENDCHAR
STARTCHAR uni00B9
ENCODING 185
SWIDTH 333 0
DWIDTH 4 0
BBX 3 5 1 4
BITMAP
40
40
40
40
E0
ENDCHAR
STARTCHAR ordmasculine
ENCODING 186
SWIDTH 365 0
DWIDTH 5 0
BBX 4 5 0 4
BITMAP
60
90
90
90
60
ENDCHAR
STARTCHAR guillemotright
ENCODING 187
SWIDTH 556 0
DWIDTH 7 0
BBX 6 5 1 1
BITMAP
90
48
24
48
90
ENDCHAR
STARTCHAR onequarter
ENCODING 188
SWIDTH 833 0
DWIDTH 11 0
BBX 9 9 1 0
BITMAP
4100
4200
4200
4400
E900
0B00
1500
1780
2100
ENDCHAR
STARTCHAR onehalf
ENCODING 189
SWIDTH 833 0
DWIDTH 11 0
BBX 9 9 1 0
BITMAP
4100
4200
4200
4400
EB00
0880
1100
1200
2780
ENDCHAR
STARTCHAR threequarters
ENCODING 190
SWIDTH 833 0
DWIDTH 11 0
BBX 10 9 0 0
BITMAP
E080
1100
6100
1200
E480
0580
0A80
0BC0
1080
ENDCHAR
STARTCHAR questiondown
ENCODING 191
SWIDTH 610 0
DWIDTH 8 0
BBX 5 9 2 -2
BITMAP
20
00
20
20
40
80
80
88
70
ENDCHAR
STARTCHAR Agrave
ENCODING 192
SWIDTH 666 0
DWIDTH 9 0
BBX 9 12 0 0
BITMAP
0800
0400
0000
0800
1400
1400
2200
2200
3E00
4100
4100
8080
ENDCHAR
STARTCHAR Aacute
ENCODING 193
SWIDTH 666 0
DWIDTH 9 0
BBX 9 12 0 0
BITMAP
0400
0800
0000
0800
1400
1400
2200
2200
3E00
4100
4100
8080
ENDCHAR
STARTCHAR Acircumflex
ENCODING 194
SWIDTH 666 0
DWIDTH 9 0
BBX 9 12 0 0
BITMAP
0800
1400
0000
0800
1400
1400
2200
2200
3E00
4100
4100
8080
ENDCHAR
STARTCHAR Atilde
ENCODING 195
SWIDTH 666 0
DWIDTH 9 0
BBX 9 12 0 0
BITMAP
0A00
1400
0000
0800
1400
1400
2200
2200
3E00
4100
4100
8080
ENDCHAR
STARTCHAR Adieresis
ENCODING 196
SWIDTH 666 0
DWIDTH 9 0
BBX 9 11 0 0
BITMAP
1200
0000
0800
1400
1400
2200
2200
3E00
4100
4100
8080
ENDCHAR
STARTCHAR Aring
ENCODING 197
SWIDTH 666 0
DWIDTH 9 0
BBX 9 11 0 0
BITMAP
0800
1400
0800
1400
1400
2200
2200
3E00
4100
4100
8080
ENDCHAR
STARTCHAR AE
ENCODING 198
SWIDTH 1000 0
DWIDTH 13 0
BBX 12 9 0 0
BITMAP
0FF0
0A00
1200
1200
23E0
3E00
4200
4200
83F0
ENDCHAR
STARTCHAR Ccedilla
ENCODING 199
SWIDTH 722 0
DWIDTH 9 0
BBX 7 12 1 -3
BITMAP
3C
42
80
80
80
80
80
42
3C
10
08
10
ENDCHAR
STARTCHAR Egrave
ENCODING 200
SWIDTH 666 0
DWIDTH 9 0
BBX 7 12 1 0
BITMAP
20
10
00
FE
80
80
80
FC
80
80
80
FE
ENDCHAR
STARTCHAR Eacute
ENCODING 201
SWIDTH 666 0
DWIDTH 9 0
BBX 7 12 1 0
BITMAP
08
10
00
FE
80
80
80
FC
80
80
80
FE
ENDCHAR
STARTCHAR Ecircumflex
ENCODING 202
SWIDTH 666 0
DWIDTH 9 0
BBX 7 12 1 0
BITMAP
10
28
00
FE
80
80
80
FC
80
80
80
FE
ENDCHAR
STARTCHAR Edieresis
ENCODING 203
SWIDTH 666 0
DWIDTH 9 0
BBX 7 11 1 0
BITMAP
24
00
FE
80
80
80
FC
80
80
80
FE
ENDCHAR
STARTCHAR Igrave
ENCODING 204
SWIDTH 277 0
DWIDTH 4 0
BBX 2 12 0 0
BITMAP
80
40
00
40
40
40
40
40
40
40
40
40
ENDCHAR
STARTCHAR Iacute
ENCODING 205
SWIDTH 277 0
DWIDTH 4 0
BBX 2 12 1 0
BITMAP
40
80
00
80
80
80
80
80
80
80
80
80
ENDCHAR
STARTCHAR Icircumflex
ENCODING 206
SWIDTH 277 0
DWIDTH 4 0
BBX 3 12 0 0
BITMAP
40
A0
00
40
40
40
40
40
40
40
40
40
ENDCHAR
STARTCHAR Idieresis
ENCODING 207
SWIDTH 277 0
DWIDTH 4 0
BBX 4 11 0 0
BITMAP
90
00
40
40
40
40
40
40
40
40
40
ENDCHAR
STARTCHAR Eth
ENCODING 208
SWIDTH 722 0
DWIDTH 9 0
BBX 8 9 0 0
BITMAP
7C
42
41
41
F1
41
41
42
7C
ENDCHAR
STARTCHAR Ntilde
ENCODING 209
SWIDTH 722 0
DWIDTH 9 0
BBX 7 12 1 0
BITMAP
14
28
00
82
C2
A2
A2
92
8A
8A
86
82
ENDCHAR
STARTCHAR Ograve
ENCODING 210
SWIDTH 777 0
DWIDTH 10 0
BBX 8 12 1 0
BITMAP
10
08
00
3C
42
81
81
81
81
81
42
3C
ENDCHAR
STARTCHAR Oacute
ENCODING 211
SWIDTH 777 0
DWIDTH 10 0
BBX 8 12 1 0
BITMAP
08
10
00
3C
42
81
81
81
81
81
42
3C
ENDCHAR
STARTCHAR Ocircumflex
ENCODING 212
SWIDTH 777 0
DWIDTH 10 0
BBX 8 12 1 0
BITMAP
08
14
00
3C
42
81
81
81
81
81
42
3C
ENDCHAR
STARTCHAR Otilde
ENCODING 213
SWIDTH 777 0
DWIDTH 10 0
BBX 8 12 1 0
BITMAP
14
28
00
3C
42
81
81
81
81
81
42
3C
ENDCHAR
STARTCHAR Odieresis
ENCODING 214
SWIDTH 777 0
DWIDTH 10 0
BBX 8 11 1 0
BITMAP
24
00
3C
42
81
81
81
81
81
42
3C
ENDCHAR
STARTCHAR multiply
ENCODING 215
SWIDTH 583 0
DWIDTH 8 0
BBX 5 5 1 2
BITMAP
88
50
20
50
88
ENDCHAR
STARTCHAR Oslash
ENCODING 216
SWIDTH 777 0
DWIDTH 10 0
BBX 8 9 1 0
BITMAP
3D
42
85
89
91
91
A1
42
BC
ENDCHAR
STARTCHAR Ugrave
ENCODING 217
SWIDTH 722 0
DWIDTH 9 0
BBX 7 12 1 0
BITMAP
10
08
00
82
82
82
82
82
82
82
44
38
ENDCHAR
STARTCHAR Uacute
ENCODING 218
SWIDTH 722 0
DWIDTH 9 0
BBX 7 12 1 0
BITMAP
08
10
00
82
82
82
82
82
82
82
44
38
ENDCHAR
STARTCHAR Ucircumflex
ENCODING 219
SWIDTH 722 0
DWIDTH 9 0
BBX 7 12 1 0
BITMAP
10
28
00
82
82
82
82
82
82
82
44
38
ENDCHAR
STARTCHAR Udieresis
ENCODING 220
SWIDTH 722 0
DWIDTH 9 0
BBX 7 11 1 0
BITMAP
24
00
82
82
82
82
82
82
82
44
38
ENDCHAR
STARTCHAR Yacute
ENCODING 221
SWIDTH 666 0
DWIDTH 9 0
BBX 7 12 1 0
BITMAP
08
10
00
82
44
48
28
10
10
10
10
10
ENDCHAR
STARTCHAR Thorn
ENCODING 222
SWIDTH 666 0
DWIDTH 9 0
BBX 7 9 1 0
BITMAP
80
80
FC
82
82
82
FC
80
80
ENDCHAR
STARTCHAR germandbls
ENCODING 223
SWIDTH 610 0
DWIDTH 8 0
BBX 7 9 1 0
BITMAP
78
84
84
88
90
8C
82
82
9C
ENDCHAR
STARTCHAR agrave
ENCODING 224
SWIDTH 556 0
DWIDTH 7 0
BBX 6 10 1 0
BITMAP
20
10
00
70
88
08
78
88
98
64
ENDCHAR
STARTCHAR aacute
ENCODING 225
SWIDTH 556 0
DWIDTH 7 0
BBX 6 10 1 0
BITMAP
10
20
00
70
88
08
78
88
98
64
ENDCHAR
STARTCHAR acircumflex
ENCODING 226
SWIDTH 556 0
DWIDTH 7 0
BBX 6 10 1 0
BITMAP
20
50
00
70
88
08
78
88
98
64
ENDCHAR
STARTCHAR atilde
ENCODING 227
SWIDTH 556 0
DWIDTH 7 0
BBX 6 10 1 0
BITMAP
28
50
00
70
88
08
78
88
98
64
ENDCHAR
STARTCHAR adieresis
ENCODING 228
SWIDTH 556 0
DWIDTH 7 0
BBX 6 9 1 0
BITMAP
50
00
70
88
08
78
88
98
64
ENDCHAR
STARTCHAR aring
ENCODING 229
SWIDTH 556 0
DWIDTH 7 0
BBX 6 11 1 0
BITMAP
20
50
20
00
70
88
08
78
88
98
64
ENDCHAR
STARTCHAR ae
ENCODING 230
SWIDTH 889 0
DWIDTH 12 0
BBX 10 7 1 0
BITMAP
7B80
8440
0440
7FC0
8400
8C40
7380
ENDCHAR
STARTCHAR ccedilla
ENCODING 231
SWIDTH 500 0
DWIDTH 6 0
BBX 5 10 1 -3
BITMAP
70
88
80
80
80
88
70
20
10
20
ENDCHAR
STARTCHAR egrave
ENCODING 232
SWIDTH 556 0
DWIDTH 7 0
BBX 5 10 1 0
BITMAP
20
10
00
70
88
88
F8
80
88
70
ENDCHAR
STARTCHAR eacute
ENCODING 233
SWIDTH 556 0
DWIDTH 7 0
BBX 5 10 1 0
BITMAP
10
20
00
70
88
88
F8
80
88
70
ENDCHAR
STARTCHAR ecircumflex
ENCODING 234
SWIDTH 556 0
DWIDTH 7 0
BBX 5 10 1 0
BITMAP
20
50
00
70
88
88
F8
80
88
70
ENDCHAR
STARTCHAR edieresis
ENCODING 235
SWIDTH 556 0
DWIDTH 7 0
BBX 5 9 1 0
BITMAP
50
00
70
88
88
F8
80
88
70
ENDCHAR
STARTCHAR igrave
ENCODING 236
SWIDTH 277 0
DWIDTH 4 0
BBX 2 10 0 0
BITMAP
80
40
00
40
40
40
40
40
40
40
ENDCHAR
STARTCHAR iacute
ENCODING 237
SWIDTH 277 0
DWIDTH 4 0
BBX 2 10 1 0
BITMAP
40
80
00
80
80
80
80
80
80
80
ENDCHAR
STARTCHAR icircumflex
ENCODING 238
SWIDTH 277 0
DWIDTH 4 0
BBX 3 10 0 0
BITMAP
40
A0
00
40
40
40
40
40
40
40
ENDCHAR
STARTCHAR idieresis
ENCODING 239
SWIDTH 277 0
DWIDTH 4 0
BBX 3 9 0 0
BITMAP
A0
00
40
40
40
40
40
40
40
ENDCHAR
STARTCHAR eth
ENCODING 240
SWIDTH 556 0
DWIDTH 7 0
BBX 5 9 1 0
BITMAP
50
20
10
78
88
88
88
88
70
ENDCHAR
STARTCHAR ntilde
ENCODING 241
SWIDTH 556 0
DWIDTH 7 0
BBX 5 10 1 0
BITMAP
28
50
00
B0
C8
88
88
88
88
88
ENDCHAR
STARTCHAR ograve
ENCODING 242
SWIDTH 556 0
DWIDTH 7 0
BBX 5 10 1 0
BITMAP
20
10
00
70
88
88
88
88
88
70
ENDCHAR
STARTCHAR oacute
ENCODING 243
SWIDTH 556 0
DWIDTH 7 0
BBX 5 10 1 0
BITMAP
10
20
00
70
88
88
88
88
88
70
ENDCHAR
STARTCHAR ocircumflex
ENCODING 244
SWIDTH 556 0
DWIDTH 7 0
BBX 5 10 1 0
BITMAP
20
50
00
70
88
88
88
88
88
70
ENDCHAR
STARTCHAR otilde
ENCODING 245
SWIDTH 556 0
DWIDTH 7 0
BBX 5 10 1 0
BITMAP
28
50
00
70
88
88
88
88
88
70
ENDCHAR
STARTCHAR odieresis
ENCODING 246
SWIDTH 556 0
DWIDTH 7 0
BBX 5 9 1 0
BITMAP
50
00
70
88
88
88
88
88
70
ENDCHAR
STARTCHAR divide
ENCODING 247
SWIDTH 548 0
DWIDTH 7 0
BBX 7 7 0 1
BITMAP
10
00
00
FE
00
00
10
ENDCHAR
STARTCHAR oslash
ENCODING 248
SWIDTH 610 0
DWIDTH 8 0
BBX 5 7 1 0
BITMAP
78
88
98
A8
C8
88
F0
ENDCHAR
STARTCHAR ugrave
ENCODING 249
SWIDTH 556 0
DWIDTH 7 0
BBX 5 10 1 0
BITMAP
20
10
00
88
88
88
88
88
88
78
ENDCHAR
STARTCHAR uacute
ENCODING 250
SWIDTH 556 0
DWIDTH 7 0
BBX 5 10 1 0
BITMAP
10
20
00
88
88
88
88
88
88
78
ENDCHAR
STARTCHAR ucircumflex
ENCODING 251
SWIDTH 556 0
DWIDTH 7 0
BBX 5 10 1 0
BITMAP
20
50
00
88
88
88
88
88
88
78
ENDCHAR
STARTCHAR udieresis
ENCODING 252
SWIDTH 556 0
DWIDTH 7 0
BBX 5 9 1 0
BITMAP
50
00
88
88
88
88
88
88
78
ENDCHAR
STARTCHAR yacute
ENCODING 253
SWIDTH 500 0
DWIDTH 6 0
BBX 7 13 0 -3
BITMAP
08
10
00
82
82
44
44
28
28
10
10
20
C0
ENDCHAR
STARTCHAR thorn
ENCODING 254
SWIDTH 556 0
DWIDTH 7 0
BBX 5 12 1 -3
BITMAP
80
80
B0
C8
88
88
88
88
F0
80
80
80
ENDCHAR
STARTCHAR ydieresis
ENCODING 255
SWIDTH 500 0
DWIDTH 6 0
BBX 7 12 0 -3
BITMAP
28
00
82
82
44
44
28
28
10
10
20
C0
ENDCHAR
STARTCHAR Amacron
ENCODING 256
SWIDTH 666 0
DWIDTH 9 0
BBX 9 11 0 0
BITMAP
1C00
0000
0800
1400
1400
2200
2200
3E00
4100
4100
8080
ENDCHAR
STARTCHAR amacron
ENCODING 257
SWIDTH 556 0
DWIDTH 7 0
BBX 6 9 1 0
BITMAP
70
00
70
88
08
78
88
98
64
ENDCHAR
STARTCHAR Abreve
ENCODING 258
SWIDTH 666 0
DWIDTH 9 0
BBX 9 12 0 0
BITMAP
1200
0C00
0000
0800
1400
1400
2200
2200
3E00
4100
4100
8080
ENDCHAR
STARTCHAR abreve
ENCODING 259
SWIDTH 556 0
DWIDTH 7 0
BBX 6 10 1 0
BITMAP
48
30
00
70
88
08
78
88
98
64
ENDCHAR
STARTCHAR Aogonek
ENCODING 260
SWIDTH 666 0
DWIDTH 9 0
BBX 9 12 0 -3
BITMAP
0800
1400
1400
2200
2200
3E00
4100
4100
8080
0080
0100
0080
ENDCHAR
STARTCHAR aogonek
ENCODING 261
SWIDTH 556 0
DWIDTH 7 0
BBX 6 10 1 -3
BITMAP
70
88
08
78
88
98
64
04
08
04
ENDCHAR
STARTCHAR Cacute
ENCODING 262
SWIDTH 722 0
DWIDTH 9 0
BBX 7 12 1 0
BITMAP
04
08
00
3C
42
80
80
80
80
80
42
3C
ENDCHAR
STARTCHAR cacute
ENCODING 263
SWIDTH 500 0
DWIDTH 6 0
BBX 5 10 1 0
BITMAP
10
20
00
70
88
80
80
80
88
70
ENDCHAR
STARTCHAR Ccircumflex
ENCODING 264
SWIDTH 722 0
DWIDTH 9 0
BBX 7 12 1 0
BITMAP
10
28
00
3C
42
80
80
80
80
80
42
3C
ENDCHAR
STARTCHAR ccircumflex
ENCODING 265
SWIDTH 500 0
DWIDTH 6 0
BBX 5 10 1 0
BITMAP
20
50
00
70
88
80
80
80
88
70
ENDCHAR
STARTCHAR Cdotaccent
ENCODING 266
SWIDTH 722 0
DWIDTH 9 0
BBX 7 11 1 0
BITMAP
08
00
3C
42
80
80
80
80
80
42
3C
ENDCHAR
STARTCHAR cdotaccent
ENCODING 267
SWIDTH 500 0
DWIDTH 6 0
BBX 5 9 1 0
BITMAP
20
00
70
88
80
80
80
88
70
ENDCHAR
STARTCHAR Ccaron
ENCODING 268
SWIDTH 722 0
DWIDTH 9 0
BBX 7 12 1 0
BITMAP
28
10
00
3C
42
80
80
80
80
80
42
3C
ENDCHAR
STARTCHAR ccaron
ENCODING 269
SWIDTH 500 0
DWIDTH 6 0
BBX 5 10 1 0
BITMAP
50
20
00
70
88
80
80
80
88
70
ENDCHAR
STARTCHAR Dcaron
ENCODING 270
SWIDTH 722 0
DWIDTH 9 0
BBX 7 12 1 0
BITMAP
28
10
00
F8
84
82
82
82
82
82
84
F8
ENDCHAR
STARTCHAR dcaron
ENCODING 271
SWIDTH 614 0
DWIDTH 8 0
BBX 7 9 1 0
BITMAP
0A
0A
68
98
88
88
88
88
78
ENDCHAR
STARTCHAR Dcroat
ENCODING 272
SWIDTH 722 0
DWIDTH 9 0
BBX 8 9 0 0
BITMAP
7C
42
41
41
F1
41
41
42
7C
ENDCHAR
STARTCHAR dcroat
ENCODING 273
SWIDTH 556 0
DWIDTH 7 0
BBX 6 9 1 0
BITMAP
08
3C
08
68
98
88
88
88
78
ENDCHAR
STARTCHAR Emacron
ENCODING 274
SWIDTH 666 0
DWIDTH 9 0
BBX 7 11 1 0
BITMAP
38
00
FE
80
80
80
FC
80
80
80
FE
ENDCHAR
STARTCHAR emacron
ENCODING 275
SWIDTH 556 0
DWIDTH 7 0
BBX 5 9 1 0
BITMAP
70
00
70
88
88
F8
80
88
70
ENDCHAR
STARTCHAR Ebreve
ENCODING 276
SWIDTH 666 0
DWIDTH 9 0
BBX 7 12 1 0
BITMAP
24
18
00
FE
80
80
80
FC
80
80
80
FE
ENDCHAR
STARTCHAR ebreve
ENCODING 277
SWIDTH 556 0
DWIDTH 7 0
BBX 5 10 1 0
BITMAP
48
30
00
70
88
88
F8
80
88
70
ENDCHAR
STARTCHAR Edotaccent
ENCODING 278
SWIDTH 666 0
DWIDTH 9 0
BBX 7 11 1 0
BITMAP
10
00
FE
80
80
80
FC
80
80
80
FE
ENDCHAR
STARTCHAR edotaccent
ENCODING 279
SWIDTH 556 0
DWIDTH 7 0
BBX 5 9 1 0
BITMAP
20
00
70
88
88
F8
80
88
70
ENDCHAR
STARTCHAR Eogonek
ENCODING 280
SWIDTH 666 0
DWIDTH 9 0
BBX 7 12 1 -3
BITMAP
FE
80
80
80
FC
80
80
80
FE
02
04
02
ENDCHAR
STARTCHAR eogonek
ENCODING 281
SWIDTH 556 0
DWIDTH 7 0
BBX 5 10 1 -3
BITMAP
70
88
88
F8
80
88
70
10
20
10
ENDCHAR
STARTCHAR Ecaron
ENCODING 282
SWIDTH 666 0
DWIDTH 9 0
BBX 7 12 1 0
BITMAP
28
10
00
FE
80
80
80
FC
80
80
80
FE
ENDCHAR
STARTCHAR ecaron
ENCODING 283
SWIDTH 556 0
DWIDTH 7 0
BBX 5 10 1 0
BITMAP
50
20
00
70
88
88
F8
80
88
70
ENDCHAR
STARTCHAR Gcircumflex
ENCODING 284
SWIDTH 777 0
DWIDTH 10 0
BBX 8 12 1 0
BITMAP
08
14
00
3C
42
80
80
8F
81
81
42
3C
ENDCHAR
STARTCHAR gcircumflex
ENCODING 285
SWIDTH 556 0
DWIDTH 7 0
BBX 5 13 1 -3
BITMAP
20
50
00
68
98
88
88
88
98
68
08
88
70
ENDCHAR
STARTCHAR Gbreve
ENCODING 286
SWIDTH 777 0
DWIDTH 10 0
BBX 8 12 1 0
BITMAP
12
0C
00
3C
42
80
80
8F
81
81
42
3C
ENDCHAR
STARTCHAR gbreve
ENCODING 287
SWIDTH 556 0
DWIDTH 7 0
BBX 5 13 1 -3
BITMAP
48
30
00
68
98
88
88
88
98
68
08
88
70
ENDCHAR
STARTCHAR Gdotaccent
ENCODING 288
SWIDTH 777 0
DWIDTH 10 0
BBX 8 11 1 0
BITMAP
08
00
3C
42
80
80
8F
81
81
42
3C
ENDCHAR
STARTCHAR gdotaccent
ENCODING 289
SWIDTH 556 0
DWIDTH 7 0
BBX 5 12 1 -3
BITMAP
20
00
68
98
88
88
88
98
68
08
88
70
ENDCHAR
STARTCHAR Gcommaaccent
ENCODING 290
SWIDTH 777 0
DWIDTH 10 0
BBX 8 12 1 -3
BITMAP
3C
42
80
80
8F
81
81
42
3C
00
08
10
ENDCHAR
STARTCHAR gcommaaccent
ENCODING 291
SWIDTH 556 0
DWIDTH 7 0
BBX 5 13 1 -3
BITMAP
20
20
00
68
98
88
88
88
98
68
08
88
70
ENDCHAR
STARTCHAR Hcircumflex
ENCODING 292
SWIDTH 722 0
DWIDTH 9 0
BBX 7 12 1 0
BITMAP
10
28
00
82
82
82
82
FE
82
82
82
82
ENDCHAR
STARTCHAR hcircumflex
ENCODING 293
SWIDTH 556 0
DWIDTH 7 0
BBX 5 12 1 0
BITMAP
20
50
00
80
80
B0
C8
88
88
88
88
88
ENDCHAR
STARTCHAR Hbar
ENCODING 294
SWIDTH 722 0
DWIDTH 9 0
BBX 9 9 0 0
BITMAP
4100
4100
FF80
4100
7F00
4100
4100
4100
4100
ENDCHAR
STARTCHAR hbar
ENCODING 295
SWIDTH 556 0
DWIDTH 7 0
BBX 6 9 0 0
BITMAP
40
F0
40
58
64
44
44
44
44
ENDCHAR
STARTCHAR Itilde
ENCODING 296
SWIDTH 277 0
DWIDTH 4 0
BBX 4 12 0 0
BITMAP
50
A0
00
40
40
40
40
40
40
40
40
40
ENDCHAR
STARTCHAR itilde
ENCODING 297
SWIDTH 277 0
DWIDTH 4 0
BBX 4 10 0 0
BITMAP
50
A0
00
40
40
40
40
40
40
40
ENDCHAR
STARTCHAR Imacron
ENCODING 298
SWIDTH 277 0
DWIDTH 4 0
BBX 3 11 0 0
BITMAP
E0
00
40
40
40
40
40
40
40
40
40
ENDCHAR
STARTCHAR imacron
ENCODING 299
SWIDTH 277 0
DWIDTH 4 0
BBX 3 9 0 0
BITMAP
E0
00
40
40
40
40
40
40
40
ENDCHAR
STARTCHAR Ibreve
ENCODING 300
SWIDTH 277 0
DWIDTH 4 0
BBX 4 12 0 0
BITMAP
90
60
00
40
40
40
40
40
40
40
40
40
ENDCHAR
STARTCHAR ibreve
ENCODING 301
SWIDTH 277 0
DWIDTH 4 0
BBX 4 10 0 0
BITMAP
90
60
00
40
40
40
40
40
40
40
ENDCHAR
STARTCHAR Iogonek
ENCODING 302
SWIDTH 277 0
DWIDTH 4 0
BBX 2 12 0 -3
BITMAP
40
40
40
40
40
40
40
40
40
40
80
40
ENDCHAR
STARTCHAR iogonek
ENCODING 303
SWIDTH 222 0
DWIDTH 3 0
BBX 2 12 0 -3
BITMAP
40
00
40
40
40
40
40
40
40
40
80
40
ENDCHAR
STARTCHAR Idotaccent
ENCODING 304
SWIDTH 277 0
DWIDTH 4 0
BBX 1 11 1 0
BITMAP
80
00
80
80
80
80
80
80
80
80
80
ENDCHAR
STARTCHAR dotlessi
ENCODING 305
SWIDTH 277 0
DWIDTH 4 0
BBX 1 7 1 0
BITMAP
80
80
80
80
80
80
80
ENDCHAR
STARTCHAR IJ
ENCODING 306
SWIDTH 734 0
DWIDTH 10 0
BBX 7 9 1 0
BITMAP
8E
82
82
82
82
82
82
A2
9C
ENDCHAR
STARTCHAR ij
ENCODING 307
SWIDTH 443 0
DWIDTH 6 0
BBX 5 12 1 -3
BITMAP
88
00
88
88
88
88
88
88
88
08
08
10
ENDCHAR
STARTCHAR Jcircumflex
ENCODING 308
SWIDTH 500 0
DWIDTH 6 0
BBX 5 12 0 0
BITMAP
10
28
00
38
08
08
08
08
08
08
88
70
ENDCHAR
STARTCHAR jcircumflex
ENCODING 309
SWIDTH 222 0
DWIDTH 3 0
BBX 3 13 0 -3
BITMAP
40
A0
00
40
40
40
40
40
40
40
40
40
80
ENDCHAR
STARTCHAR Kcommaaccent
ENCODING 310
SWIDTH 666 0
DWIDTH 9 0
BBX 8 12 1 -3
BITMAP
82
84
88
90
B0
C8
84
82
81
00
08
10
ENDCHAR
STARTCHAR kcommaaccent
ENCODING 311
SWIDTH 500 0
DWIDTH 6 0
BBX 6 12 1 -3
BITMAP
80
80
88
90
A0
E0
90
88
84
00
10
20
ENDCHAR
STARTCHAR kgreenlandic
ENCODING 312
SWIDTH 500 0
DWIDTH 6 0
BBX 6 7 1 0
BITMAP
88
90
A0
E0
90
88
84
ENDCHAR
STARTCHAR Lacute
ENCODING 313
SWIDTH 556 0
DWIDTH 7 0
BBX 5 12 1 0
BITMAP
20
40
00
80
80
80
80
80
80
80
80
F8
ENDCHAR
STARTCHAR lacute
ENCODING 314
SWIDTH 222 0
DWIDTH 3 0
BBX 2 12 1 0
BITMAP
40
80
00
80
80
80
80
80
80
80
80
80
ENDCHAR
STARTCHAR Lcommaaccent
ENCODING 315
SWIDTH 556 0
DWIDTH 7 0
BBX 5 12 1 -3
BITMAP
80
80
80
80
80
80
80
80
F8
00
20
40
ENDCHAR
STARTCHAR lcommaaccent
ENCODING 316
SWIDTH 222 0
DWIDTH 3 0
BBX 2 12 0 -3
BITMAP
40
40
40
40
40
40
40
40
40
00
40
80
ENDCHAR
STARTCHAR Lcaron
ENCODING 317
SWIDTH 556 0
DWIDTH 7 0
BBX 5 9 1 0
BITMAP
90
90
80
80
80
80
80
80
F8
ENDCHAR
STARTCHAR lcaron
ENCODING 318
SWIDTH 291 0
DWIDTH 4 0
BBX 3 9 1 0
BITMAP
A0
A0
80
80
80
80
80
80
80
ENDCHAR
STARTCHAR Ldot
ENCODING 319
SWIDTH 556 0
DWIDTH 7 0
BBX 5 9 1 0
BITMAP
80
80
80
80
90
80
80
80
F8
ENDCHAR
STARTCHAR ldot
ENCODING 320
SWIDTH 333 0
DWIDTH 4 0
BBX 3 9 1 0
BITMAP
80
80
80
80
A0
80
80
80
80
ENDCHAR
STARTCHAR Lslash
ENCODING 321
SWIDTH 556 0
DWIDTH 7 0
BBX 6 9 0 0
BITMAP
40
40
40
50
60
C0
40
40
7C
ENDCHAR
STARTCHAR lslash
ENCODING 322
SWIDTH 222 0
DWIDTH 3 0
BBX 3 9 0 0
BITMAP
40
40
40
60
40
C0
40
40
40
ENDCHAR
STARTCHAR Nacute
ENCODING 323
SWIDTH 722 0
DWIDTH 9 0
BBX 7 12 1 0
BITMAP
08
10
00
82
C2
A2
A2
92
8A
8A
86
82
ENDCHAR
STARTCHAR nacute
ENCODING 324
SWIDTH 556 0
DWIDTH 7 0
BBX 5 10 1 0
BITMAP
10
20
00
B0
C8
88
88
88
88
88
ENDCHAR
STARTCHAR Ncommaaccent
ENCODING 325
SWIDTH 722 0
DWIDTH 9 0
BBX 7 12 1 -3
BITMAP
82
C2
A2
A2
92
8A
8A
86
82
00
10
20
ENDCHAR
STARTCHAR ncommaaccent
ENCODING 326
SWIDTH 556 0
DWIDTH 7 0
BBX 5 10 1 -3
BITMAP
B0
C8
88
88
88
88
88
00
20
40
ENDCHAR
STARTCHAR Ncaron
ENCODING 327
SWIDTH 722 0
DWIDTH 9 0
BBX 7 12 1 0
BITMAP
28
10
00
82
C2
A2
A2
92
8A
8A
86
82
ENDCHAR
STARTCHAR ncaron
ENCODING 328
SWIDTH 556 0
DWIDTH 7 0
BBX 5 10 1 0
BITMAP
50
20
00
B0
C8
88
88
88
88
88
ENDCHAR
STARTCHAR napostrophe
ENCODING 329
SWIDTH 604 0
DWIDTH 8 0
BBX 8 9 -1 0
BITMAP
40
40
96
19
11
11
11
11
11
ENDCHAR
STARTCHAR Eng
ENCODING 330
SWIDTH 723 0
DWIDTH 9 0
BBX 7 9 1 0
BITMAP
B8
C4
82
82
82
82
82
92
9C
ENDCHAR
STARTCHAR eng
ENCODING 331
SWIDTH 556 0
DWIDTH 7 0
BBX 5 10 1 -3
BITMAP
B0
C8
88
88
88
88
88
08
08
10
ENDCHAR
STARTCHAR Omacron
ENCODING 332
SWIDTH 777 0
DWIDTH 10 0
BBX 8 11 1 0
BITMAP
1C
00
3C
42
81
81
81
81
81
42
3C
ENDCHAR
STARTCHAR omacron
ENCODING 333
SWIDTH 556 0
DWIDTH 7 0
BBX 5 9 1 0
BITMAP
70
00
70
88
88
88
88
88
70
ENDCHAR
STARTCHAR Obreve
ENCODING 334
SWIDTH 777 0
DWIDTH 10 0
BBX 8 12 1 0
BITMAP
24
18
00
3C
42
81
81
81
81
81
42
3C
ENDCHAR
STARTCHAR obreve
ENCODING 335
SWIDTH 556 0
DWIDTH 7 0
BBX 5 10 1 0
BITMAP
48
30
00
70
88
88
88
88
88
70
ENDCHAR
STARTCHAR Ohungarumlaut
ENCODING 336
SWIDTH 777 0
DWIDTH 10 0
BBX 8 12 1 0
BITMAP
14
28
00
3C
42
81
81
81
81
81
42
3C
ENDCHAR
STARTCHAR ohungarumlaut
ENCODING 337
SWIDTH 556 0
DWIDTH 7 0
BBX 5 10 1 0
BITMAP
28
50
00
70
88
88
88
88
88
70
ENDCHAR
STARTCHAR OE
ENCODING 338
SWIDTH 1000 0
DWIDTH 13 0
BBX 11 9 1 0
BITMAP
3FE0
4400
8400
8400
87C0
8400
8400
4400
3FE0
ENDCHAR
STARTCHAR oe
ENCODING 339
SWIDTH 943 0
DWIDTH 12 0
BBX 10 7 1 0
BITMAP
7B80
8440
8440
87C0
8400
8440
7B80
ENDCHAR
STARTCHAR Racute
ENCODING 340
SWIDTH 722 0
DWIDTH 9 0
BBX 7 12 1 0
BITMAP
08
10
00
FC
82
82
82
FC
90
88
84
82
ENDCHAR
STARTCHAR racute
ENCODING 341
SWIDTH 333 0
DWIDTH 4 0
BBX 3 10 1 0
BITMAP
20
40
00
E0
80
80
80
80
80
80
ENDCHAR
STARTCHAR Rcommaaccent
ENCODING 342
SWIDTH 722 0
DWIDTH 9 0
BBX 7 12 1 -3
BITMAP
FC
82
82
82
FC
90
88
84
82
00
10
20
ENDCHAR
STARTCHAR rcommaaccent
ENCODING 343
SWIDTH 333 0
DWIDTH 4 0
BBX 4 10 0 -3
BITMAP
70
40
40
40
40
40
40
00
40
80
ENDCHAR
STARTCHAR Rcaron
ENCODING 344
SWIDTH 722 0
DWIDTH 9 0
BBX 7 12 1 0
BITMAP
28
10
00
FC
82
82
82
FC
90
88
84
82
ENDCHAR
STARTCHAR rcaron
ENCODING 345
SWIDTH 333 0
DWIDTH 4 0
BBX 3 10 1 0
BITMAP
A0
40
00
E0
80
80
80
80
80
80
ENDCHAR
STARTCHAR Sacute
ENCODING 346
SWIDTH 666 0
DWIDTH 9 0
BBX 7 12 1 0
BITMAP
08
10
00
7C
82
80
80
7C
02
02
82
7C
ENDCHAR
STARTCHAR sacute
ENCODING 347
SWIDTH 500 0
DWIDTH 6 0
BBX 5 10 1 0
BITMAP
10
20
00
70
88
80
70
08
88
70
ENDCHAR
STARTCHAR Scircumflex
ENCODING 348
SWIDTH 666 0
DWIDTH 9 0
BBX 7 12 1 0
BITMAP
10
28
00
7C
82
80
80
7C
02
02
82
7C
ENDCHAR
STARTCHAR scircumflex
ENCODING 349
SWIDTH 500 0
DWIDTH 6 0
BBX 5 10 1 0
BITMAP
20
50
00
70
88
80
70
08
88
70
ENDCHAR
STARTCHAR Scedilla
ENCODING 350
SWIDTH 666 0
DWIDTH 9 0
BBX 7 12 1 -3
BITMAP
7C
82
80
80
7C
02
02
82
7C
10
08
10
ENDCHAR
STARTCHAR scedilla
ENCODING 351
SWIDTH 500 0
DWIDTH 6 0
BBX 5 10 1 -3
BITMAP
70
88
80
70
08
88
70
20
10
20
ENDCHAR
STARTCHAR Scaron
ENCODING 352
SWIDTH 666 0
DWIDTH 9 0
BBX 7 12 1 0
BITMAP
28
10
00
7C
82
80
80
7C
02
02
82
7C
ENDCHAR
STARTCHAR scaron
ENCODING 353
SWIDTH 500 0
DWIDTH 6 0
BBX 5 10 1 0
BITMAP
50
20
00
70
88
80
70
08
88
70
ENDCHAR
STARTCHAR Tcommaaccent
ENCODING 354
SWIDTH 610 0
DWIDTH 8 0
BBX 7 12 0 -3
BITMAP
FE
10
10
10
10
10
10
10
10
00
10
20
ENDCHAR
STARTCHAR tcommaaccent
ENCODING 355
SWIDTH 277 0
DWIDTH 4 0
BBX 4 12 0 -3
BITMAP
40
40
F0
40
40
40
40
40
30
00
20
40
ENDCHAR
STARTCHAR Tcaron
ENCODING 356
SWIDTH 610 0
DWIDTH 8 0
BBX 7 12 0 0
BITMAP
28
10
00
FE
10
10
10
10
10
10
10
10
ENDCHAR
STARTCHAR tcaron
ENCODING 357
SWIDTH 375 0
DWIDTH 5 0
BBX 5 9 0 0
BITMAP
48
48
F0
40
40
40
40
40
30
ENDCHAR
STARTCHAR Tbar
ENCODING 358
SWIDTH 610 0
DWIDTH 8 0
BBX 7 9 0 0
BITMAP
FE
10
10
10
7C
10
10
10
10
ENDCHAR
STARTCHAR tbar
ENCODING 359
SWIDTH 277 0
DWIDTH 4 0
BBX 4 9 0 0
BITMAP
40
40
F0
40
40
F0
40
40
30
ENDCHAR
STARTCHAR Utilde
ENCODING 360
SWIDTH 722 0
DWIDTH 9 0
BBX 7 12 1 0
BITMAP
14
28
00
82
82
82
82
82
82
82
44
38
ENDCHAR
STARTCHAR utilde
ENCODING 361
SWIDTH 556 0
DWIDTH 7 0
BBX 5 10 1 0
BITMAP
28
50
00
88
88
88
88
88
88
78
ENDCHAR
STARTCHAR Umacron
ENCODING 362
SWIDTH 722 0
DWIDTH 9 0
BBX 7 11 1 0
BITMAP
38
00
82
82
82
82
82
82
82
44
38
ENDCHAR
STARTCHAR umacron
ENCODING 363
SWIDTH 556 0
DWIDTH 7 0
BBX 5 9 1 0
BITMAP
70
00
88
88
88
88
88
88
78
ENDCHAR
STARTCHAR Ubreve
ENCODING 364
SWIDTH 722 0
DWIDTH 9 0
BBX 7 12 1 0
BITMAP
24
18
00
82
82
82
82
82
82
82
44
38
ENDCHAR
STARTCHAR ubreve
ENCODING 365
SWIDTH 556 0
DWIDTH 7 0
BBX 5 10 1 0
BITMAP
48
30
00
88
88
88
88
88
88
78
ENDCHAR
STARTCHAR Uring
ENCODING 366
SWIDTH 722 0
DWIDTH 9 0
BBX 7 13 1 0
BITMAP
10
28
10
00
82
82
82
82
82
82
82
44
38
ENDCHAR
STARTCHAR uring
ENCODING 367
SWIDTH 556 0
DWIDTH 7 0
BBX 5 11 1 0
BITMAP
20
50
20
00
88
88
88
88
88
88
78
ENDCHAR
STARTCHAR Uhungarumlaut
ENCODING 368
SWIDTH 722 0
DWIDTH 9 0
BBX 7 12 1 0
BITMAP
14
28
00
82
82
82
82
82
82
82
44
38
ENDCHAR
STARTCHAR uhungarumlaut
ENCODING 369
SWIDTH 556 0
DWIDTH 7 0
BBX 5 10 1 0
BITMAP
28
50
00
88
88
88
88
88
88
78
ENDCHAR
STARTCHAR Uogonek
ENCODING 370
SWIDTH 722 0
DWIDTH 9 0
BBX 7 12 1 -3
BITMAP
82
82
82
82
82
82
82
44
38
08
10
08
ENDCHAR
STARTCHAR uogonek
ENCODING 371
SWIDTH 556 0
DWIDTH 7 0
BBX 5 10 1 -3
BITMAP
88
88
88
88
88
88
78
08
10
08
ENDCHAR
STARTCHAR Wcircumflex
ENCODING 372
SWIDTH 943 0
DWIDTH 12 0
BBX 13 12 0 0
BITMAP
0200
0500
0000
8208
4210
4510
4510
28A0
28A0
28A0
1040
1040
ENDCHAR
STARTCHAR wcircumflex
ENCODING 373
SWIDTH 722 0
DWIDTH 9 0
BBX 9 10 0 0
BITMAP
0800
1400
0000
8880
8880
5500
5500
5500
2200
2200
ENDCHAR
STARTCHAR Ycircumflex
ENCODING 374
SWIDTH 666 0
DWIDTH 9 0
BBX 7 12 1 0
BITMAP
10
28
00
82
44
48
28
10
10
10
10
10
ENDCHAR
STARTCHAR ycircumflex
ENCODING 375
SWIDTH 500 0
DWIDTH 6 0
BBX 7 13 0 -3
BITMAP
10
28
00
82
82
44
44
28
28
10
10
20
C0
ENDCHAR
STARTCHAR Ydieresis
ENCODING 376
SWIDTH 666 0
DWIDTH 9 0
BBX 7 11 1 0
BITMAP
24
00
82
44
48
28
10
10
10
10
10
ENDCHAR
STARTCHAR Zacute
ENCODING 377
SWIDTH 610 0
DWIDTH 8 0
BBX 5 12 1 0
BITMAP
10
20
00
F8
08
10
10
20
40
40
80
F8
ENDCHAR
STARTCHAR zacute
ENCODING 378
SWIDTH 500 0
DWIDTH 6 0
BBX 5 10 1 0
BITMAP
10
20
00
F8
08
10
20
40
80
F8
ENDCHAR
STARTCHAR Zdotaccent
ENCODING 379
SWIDTH 610 0
DWIDTH 8 0
BBX 5 11 1 0
BITMAP
20
00
F8
08
10
10
20
40
40
80
F8
ENDCHAR
STARTCHAR zdotaccent
ENCODING 380
SWIDTH 500 0
DWIDTH 6 0
BBX 5 9 1 0
BITMAP
20
00
F8
08
10
20
40
80
F8
ENDCHAR
STARTCHAR Zcaron
ENCODING 381
SWIDTH 610 0
DWIDTH 8 0
BBX 5 12 1 0
BITMAP
28
10
00
F8
08
10
10
20
40
40
80
F8
ENDCHAR
STARTCHAR zcaron
ENCODING 382
SWIDTH 500 0
DWIDTH 6 0
BBX 5 10 1 0
BITMAP
50
20
00
F8
08
10
20
40
80
F8
ENDCHAR
STARTCHAR longs
ENCODING 383
SWIDTH 222 0
DWIDTH 3 0
BBX 2 9 1 0
BITMAP
40
80
80
80
80
80
80
80
80
ENDCHAR
STARTCHAR florin
ENCODING 402
SWIDTH 556 0
DWIDTH 7 0
BBX 5 12 1 -3
BITMAP
18
20
20
70
20
40
40
40
40
40
80
80
ENDCHAR
STARTCHAR Aringacute
ENCODING 506
SWIDTH 666 0
DWIDTH 9 0
BBX 9 13 0 0
BITMAP
0400
0800
0800
1400
1400
0800
1400
1400
2200
2200
7F00
4100
8080
ENDCHAR
STARTCHAR aringacute
ENCODING 507
SWIDTH 556 0
DWIDTH 7 0
BBX 6 12 1 0
BITMAP
10
20
00
20
50
70
88
08
78
88
98
64
ENDCHAR
STARTCHAR AEacute
ENCODING 508
SWIDTH 1000 0
DWIDTH 13 0
BBX 12 12 0 0
BITMAP
0080
0100
0000
0FF0
0A00
1200
1200
23E0
3E00
4200
4200
83F0
ENDCHAR
STARTCHAR aeacute
ENCODING 509
SWIDTH 889 0
DWIDTH 12 0
BBX 10 10 1 0
BITMAP
0400
0800
0000
7B80
8440
0440
7FC0
8400
8C40
7380
ENDCHAR
STARTCHAR Oslashacute
ENCODING 510
SWIDTH 777 0
DWIDTH 10 0
BBX 8 12 1 0
BITMAP
04
08
00
3D
42
85
89
91
91
A1
42
BC
ENDCHAR
STARTCHAR oslashacute
ENCODING 511
SWIDTH 610 0
DWIDTH 8 0
BBX 5 10 1 0
BITMAP
10
20
00
78
88
98
A8
C8
88
F0
ENDCHAR
STARTCHAR circumflex
ENCODING 710
SWIDTH 333 0
DWIDTH 4 0
BBX 3 2 0 8
BITMAP
40
A0
ENDCHAR
STARTCHAR caron
ENCODING 711
SWIDTH 333 0
DWIDTH 4 0
BBX 3 2 0 8
BITMAP
A0
40
ENDCHAR
STARTCHAR uni02C9
ENCODING 713
SWIDTH 333 0
DWIDTH 4 0
BBX 3 1 0 8
BITMAP
E0
ENDCHAR
STARTCHAR breve
ENCODING 728
SWIDTH 333 0
DWIDTH 4 0
BBX 4 2 0 8
BITMAP
90
60
ENDCHAR
STARTCHAR dotaccent
ENCODING 729
SWIDTH 333 0
DWIDTH 4 0
BBX 1 1 1 8
BITMAP
80
ENDCHAR
STARTCHAR ring
ENCODING 730
SWIDTH 333 0
DWIDTH 4 0
BBX 3 3 0 8
BITMAP
40
A0
40
ENDCHAR
STARTCHAR ogonek
ENCODING 731
SWIDTH 333 0
DWIDTH 4 0
BBX 2 3 1 -3
BITMAP
40
80
40
ENDCHAR
STARTCHAR tilde
ENCODING 732
SWIDTH 333 0
DWIDTH 4 0
BBX 4 2 0 8
BITMAP
50
A0
ENDCHAR
STARTCHAR hungarumlaut
ENCODING 733
SWIDTH 333 0
DWIDTH 4 0
BBX 4 2 1 8
BITMAP
50
A0
ENDCHAR
STARTCHAR semicolon.dup3
ENCODING 894
SWIDTH 277 0
DWIDTH 4 0
BBX 2 9 1 -2
BITMAP
40
00
00
00
00
00
40
40
80
ENDCHAR
STARTCHAR tonos
ENCODING 900
SWIDTH 333 0
DWIDTH 4 0
BBX 2 2 1 7
BITMAP
40
80
ENDCHAR
STARTCHAR dieresistonos
ENCODING 901
SWIDTH 333 0
DWIDTH 4 0
BBX 4 3 0 8
BITMAP
20
40
D0
ENDCHAR
STARTCHAR Alphatonos
ENCODING 902
SWIDTH 667 0
DWIDTH 9 0
BBX 9 9 0 0
BITMAP
2800
5400
1400
2200
2200
3E00
4100
4100
8080
ENDCHAR
STARTCHAR anoteleia
ENCODING 903
SWIDTH 277 0
DWIDTH 4 0
BBX 1 1 1 3
BITMAP
80
ENDCHAR
STARTCHAR Epsilontonos
ENCODING 904
SWIDTH 784 0
DWIDTH 10 0
BBX 10 9 0 0
BITMAP
5FC0
9000
1000
1000
1F80
1000
1000
1000
1FC0
ENDCHAR
STARTCHAR Etatonos
ENCODING 905
SWIDTH 837 0
DWIDTH 11 0
BBX 10 9 0 0
BITMAP
5040
9040
1040
1040
1FC0
1040
1040
1040
1040
ENDCHAR
STARTCHAR Iotatonos
ENCODING 906
SWIDTH 383 0
DWIDTH 5 0
BBX 4 9 0 0
BITMAP
50
90
10
10
10
10
10
10
10
ENDCHAR
STARTCHAR Omicrontonos
ENCODING 908
SWIDTH 774 0
DWIDTH 10 0
BBX 9 9 0 0
BITMAP
5E00
A100
4080
4080
4080
4080
4080
2100
1E00
ENDCHAR
STARTCHAR Upsilontonos
ENCODING 910
SWIDTH 855 0
DWIDTH 11 0
BBX 10 9 0 0
BITMAP
5040
8880
0900
0500
0200
0200
0200
0200
0200
ENDCHAR
STARTCHAR Omegatonos
ENCODING 911
SWIDTH 752 0
DWIDTH 10 0
BBX 9 9 0 0
BITMAP
5E00
A100
4080
4080
4080
4080
2100
1200
7380
ENDCHAR
STARTCHAR iotadieresistonos
ENCODING 912
SWIDTH 222 0
DWIDTH 3 0
BBX 4 11 0 0
BITMAP
20
40
D0
00
40
40
40
40
40
40
40
ENDCHAR
STARTCHAR Alpha
ENCODING 913
SWIDTH 666 0
DWIDTH 9 0
BBX 9 9 0 0
BITMAP
0800
1400
1400
2200
2200
3E00
4100
4100
8080
ENDCHAR
STARTCHAR Beta
ENCODING 914
SWIDTH 666 0
DWIDTH 9 0
BBX 7 9 1 0
BITMAP
FC
82
82
82
FC
82
82
82
FC
ENDCHAR
STARTCHAR Gamma
ENCODING 915
SWIDTH 550 0
DWIDTH 7 0
BBX 5 9 1 0
BITMAP
F8
80
80
80
80
80
80
80
80
ENDCHAR
STARTCHAR uni0394
ENCODING 916
SWIDTH 667 0
DWIDTH 9 0
BBX 9 9 0 0
BITMAP
0800
1400
1400
2200
2200
4100
4100
8080
FF80
ENDCHAR
STARTCHAR Epsilon
ENCODING 917
SWIDTH 666 0
DWIDTH 9 0
BBX 7 9 1 0
BITMAP
FE
80
80
80
FC
80
80
80
FE
ENDCHAR
STARTCHAR Zeta
ENCODING 918
SWIDTH 610 0
DWIDTH 8 0
BBX 5 9 1 0
BITMAP
F8
08
10
10
20
40
40
80
F8
ENDCHAR
STARTCHAR Eta
ENCODING 919
SWIDTH 722 0
DWIDTH 9 0
BBX 7 9 1 0
BITMAP
82
82
82
82
FE
82
82
82
82
ENDCHAR
STARTCHAR Theta
ENCODING 920
SWIDTH 777 0
DWIDTH 10 0
BBX 8 9 1 0
BITMAP
3C
42
81
81
BD
81
81
42
3C
ENDCHAR
STARTCHAR Iota
ENCODING 921
SWIDTH 277 0
DWIDTH 4 0
BBX 1 9 1 0
BITMAP
80
80
80
80
80
80
80
80
80
ENDCHAR
STARTCHAR Kappa
ENCODING 922
SWIDTH 666 0
DWIDTH 9 0
BBX 8 9 1 0
BITMAP
82
84
88
90
B0
C8
84
82
81
ENDCHAR
STARTCHAR Lambda
ENCODING 923
SWIDTH 667 0
DWIDTH 9 0
BBX 9 9 0 0
BITMAP
0800
1400
1400
2200
2200
2200
4100
4100
8080
ENDCHAR
STARTCHAR Mu
ENCODING 924
SWIDTH 833 0
DWIDTH 11 0
BBX 9 9 1 0
BITMAP
8080
C180
C180
A280
A280
9480
9480
8880
8880
ENDCHAR
STARTCHAR Nu
ENCODING 925
SWIDTH 722 0
DWIDTH 9 0
BBX 7 9 1 0
BITMAP
82
C2
A2
A2
92
8A
8A
86
82
ENDCHAR
STARTCHAR Xi
ENCODING 926
SWIDTH 649 0
DWIDTH 8 0
BBX 6 9 1 0
BITMAP
FC
00
00
00
78
00
00
00
FC
ENDCHAR
STARTCHAR Omicron
ENCODING 927
SWIDTH 777 0
DWIDTH 10 0
BBX 8 9 1 0
BITMAP
3C
42
81
81
81
81
81
42
3C
ENDCHAR
STARTCHAR Pi
ENCODING 928
SWIDTH 722 0
DWIDTH 9 0
BBX 7 9 1 0
BITMAP
FE
82
82
82
82
82
82
82
82
ENDCHAR
STARTCHAR Rho
ENCODING 929
SWIDTH 666 0
DWIDTH 9 0
BBX 7 9 1 0
BITMAP
FC
82
82
82
FC
80
80
80
80
ENDCHAR
STARTCHAR Sigma
ENCODING 931
SWIDTH 618 0
DWIDTH 8 0
BBX 6 9 1 0
BITMAP
FC
80
40
20
10
20
40
80
FC
ENDCHAR
STARTCHAR Tau
ENCODING 932
SWIDTH 610 0
DWIDTH 8 0
BBX 7 9 0 0
BITMAP
FE
10
10
10
10
10
10
10
10
ENDCHAR
STARTCHAR Upsilon
ENCODING 933
SWIDTH 666 0
DWIDTH 9 0
BBX 7 9 1 0
BITMAP
82
44
48
28
10
10
10
10
10
ENDCHAR
STARTCHAR Phi
ENCODING 934
SWIDTH 797 0
DWIDTH 10 0
BBX 9 9 0 0
BITMAP
0800
3E00
4900
8880
8880
8880
4900
3E00
0800
ENDCHAR
STARTCHAR Chi
ENCODING 935
SWIDTH 666 0
DWIDTH 9 0
BBX 7 9 0 0
BITMAP
82
44
28
30
10
28
28
44
82
ENDCHAR
STARTCHAR Psi
ENCODING 936
SWIDTH 835 0
DWIDTH 11 0
BBX 9 9 0 0
BITMAP
8880
8880
8880
8880
4900
3E00
0800
0800
0800
ENDCHAR
STARTCHAR uni03A9
ENCODING 937
SWIDTH 747 0
DWIDTH 10 0
BBX 8 9 1 0
BITMAP
3C
42
81
81
81
81
42
24
E7
ENDCHAR
STARTCHAR Iotadieresis
ENCODING 938
SWIDTH 277 0
DWIDTH 4 0
BBX 4 11 0 0
BITMAP
90
00
40
40
40
40
40
40
40
40
40
ENDCHAR
STARTCHAR Upsilondieresis
ENCODING 939
SWIDTH 666 0
DWIDTH 9 0
BBX 7 11 1 0
BITMAP
24
00
82
44
48
28
10
10
10
10
10
ENDCHAR
STARTCHAR alphatonos
ENCODING 940
SWIDTH 578 0
DWIDTH 8 0
BBX 6 10 1 0
BITMAP
08
10
00
64
98
88
88
88
98
64
ENDCHAR
STARTCHAR epsilontonos
ENCODING 941
SWIDTH 445 0
DWIDTH 6 0
BBX 5 10 1 0
BITMAP
10
20
00
70
88
80
70
C0
88
70
ENDCHAR
STARTCHAR etatonos
ENCODING 942
SWIDTH 556 0
DWIDTH 7 0
BBX 5 13 1 -3
BITMAP
10
20
00
B0
C8
88
88
88
88
88
08
08
08
ENDCHAR
STARTCHAR iotatonos
ENCODING 943
SWIDTH 222 0
DWIDTH 3 0
BBX 2 10 1 0
BITMAP
40
80
00
80
80
80
80
80
80
80
ENDCHAR
STARTCHAR upsilondieresistonos
ENCODING 944
SWIDTH 546 0
DWIDTH 7 0
BBX 5 11 1 0
BITMAP
10
20
68
00
90
88
88
88
88
88
70
ENDCHAR
STARTCHAR alpha
ENCODING 945
SWIDTH 578 0
DWIDTH 8 0
BBX 6 7 1 0
BITMAP
64
98
88
88
88
98
64
ENDCHAR
STARTCHAR beta
ENCODING 946
SWIDTH 575 0
DWIDTH 7 0
BBX 5 12 1 -3
BITMAP
70
88
88
88
B0
88
88
88
F0
80
80
80
ENDCHAR
STARTCHAR gamma
ENCODING 947
SWIDTH 500 0
DWIDTH 6 0
BBX 7 10 0 -3
BITMAP
82
82
44
44
28
28
10
10
10
10
ENDCHAR
STARTCHAR delta
ENCODING 948
SWIDTH 556 0
DWIDTH 7 0
BBX 5 9 1 0
BITMAP
70
40
20
50
88
88
88
88
70
ENDCHAR
STARTCHAR epsilon
ENCODING 949
SWIDTH 445 0
DWIDTH 6 0
BBX 5 7 1 0
BITMAP
70
88
80
70
C0
88
70
ENDCHAR
STARTCHAR zeta
ENCODING 950
SWIDTH 440 0
DWIDTH 6 0
BBX 5 11 1 -2
BITMAP
78
10
20
40
80
80
80
80
70
08
08
ENDCHAR
STARTCHAR eta
ENCODING 951
SWIDTH 556 0
DWIDTH 7 0
BBX 5 10 1 -3
BITMAP
B0
C8
88
88
88
88
88
08
08
08
ENDCHAR
STARTCHAR theta
ENCODING 952
SWIDTH 556 0
DWIDTH 7 0
BBX 5 9 1 0
BITMAP
70
88
88
88
F8
88
88
88
70
ENDCHAR
STARTCHAR iota
ENCODING 953
SWIDTH 222 0
DWIDTH 3 0
BBX 1 7 1 0
BITMAP
80
80
80
80
80
80
80
ENDCHAR
STARTCHAR kappa
ENCODING 954
SWIDTH 500 0
DWIDTH 6 0
BBX 6 7 1 0
BITMAP
88
90
A0
E0
90
88
84
ENDCHAR
STARTCHAR lambda
ENCODING 955
SWIDTH 500 0
DWIDTH 6 0
BBX 7 9 0 0
BITMAP
60
10
10
10
28
28
44
44
82
ENDCHAR
STARTCHAR uni03BC
ENCODING 956
SWIDTH 576 0
DWIDTH 7 0
BBX 5 10 1 -3
BITMAP
88
88
88
88
88
88
F8
80
80
80
ENDCHAR
STARTCHAR nu
ENCODING 957
SWIDTH 500 0
DWIDTH 6 0
BBX 5 7 0 0
BITMAP
88
88
88
48
50
50
20
ENDCHAR
STARTCHAR xi
ENCODING 958
SWIDTH 447 0
DWIDTH 6 0
BBX 5 11 1 -2
BITMAP
78
20
40
40
30
60
80
80
70
08
08
ENDCHAR
STARTCHAR omicron
ENCODING 959
SWIDTH 556 0
DWIDTH 7 0
BBX 5 7 1 0
BITMAP
70
88
88
88
88
88
70
ENDCHAR
STARTCHAR pi
ENCODING 960
SWIDTH 689 0
DWIDTH 9 0
BBX 7 7 1 0
BITMAP
FE
44
44
44
44
44
82
ENDCHAR
STARTCHAR rho
ENCODING 961
SWIDTH 568 0
DWIDTH 7 0
BBX 5 10 1 -3
BITMAP
70
88
88
88
88
88
F0
80
80
80
ENDCHAR
STARTCHAR sigma1
ENCODING 962
SWIDTH 481 0
DWIDTH 6 0
BBX 5 9 1 -2
BITMAP
78
80
80
80
80
80
70
08
08
ENDCHAR
STARTCHAR sigma
ENCODING 963
SWIDTH 617 0
DWIDTH 8 0
BBX 7 7 1 0
BITMAP
7E
90
88
88
88
88
70
ENDCHAR
STARTCHAR tau
ENCODING 964
SWIDTH 395 0
DWIDTH 5 0
BBX 5 7 0 0
BITMAP
F8
20
20
20
20
20
10
ENDCHAR
STARTCHAR upsilon
ENCODING 965
SWIDTH 546 0
DWIDTH 7 0
BBX 5 7 1 0
BITMAP
90
88
88
88
88
88
70
ENDCHAR
STARTCHAR phi
ENCODING 966
SWIDTH 648 0
DWIDTH 8 0
BBX 7 10 0 -3
BITMAP
4C
92
92
92
92
92
7C
10
10
10
ENDCHAR
STARTCHAR chi
ENCODING 967
SWIDTH 524 0
DWIDTH 7 0
BBX 7 10 0 -3
BITMAP
82
44
24
28
10
28
28
44
82
82
ENDCHAR
STARTCHAR psi
ENCODING 968
SWIDTH 712 0
DWIDTH 9 0
BBX 7 12 1 -3
BITMAP
10
10
92
92
92
92
92
92
7C
10
10
10
ENDCHAR
STARTCHAR omega
ENCODING 969
SWIDTH 780 0
DWIDTH 10 0
BBX 7 7 1 0
BITMAP
44
82
92
92
92
B2
6C
ENDCHAR
STARTCHAR iotadieresis
ENCODING 970
SWIDTH 222 0
DWIDTH 3 0
BBX 3 9 0 0
BITMAP
A0
00
40
40
40
40
40
40
40
ENDCHAR
STARTCHAR upsilondieresis
ENCODING 971
SWIDTH 546 0
DWIDTH 7 0
BBX 5 9 1 0
BITMAP
50
00
90
88
88
88
88
88
70
ENDCHAR
STARTCHAR omicrontonos
ENCODING 972
SWIDTH 556 0
DWIDTH 7 0
BBX 5 10 1 0
BITMAP
10
20
00
70
88
88
88
88
88
70
ENDCHAR
STARTCHAR upsilontonos
ENCODING 973
SWIDTH 546 0
DWIDTH 7 0
BBX 5 10 1 0
BITMAP
10
20
00
90
88
88
88
88
88
70
ENDCHAR
STARTCHAR omegatonos
ENCODING 974
SWIDTH 780 0
DWIDTH 10 0
BBX 7 10 1 0
BITMAP
08
10
00
44
82
92
92
92
B2
6C
ENDCHAR
STARTCHAR afii10023
ENCODING 1025
SWIDTH 667 0
DWIDTH 9 0
BBX 7 11 1 0
BITMAP
24
00
FE
80
80
80
FC
80
80
80
FE
ENDCHAR
STARTCHAR afii10051
ENCODING 1026
SWIDTH 864 0
DWIDTH 11 0
BBX 10 9 0 0
BITMAP
FE00
1000
1000
1780
1840
1040
1040
1240
1180
ENDCHAR
STARTCHAR afii10052
ENCODING 1027
SWIDTH 541 0
DWIDTH 7 0
BBX 5 12 1 0
BITMAP
10
20
00
F8
80
80
80
80
80
80
80
80
ENDCHAR
STARTCHAR afii10053
ENCODING 1028
SWIDTH 718 0
DWIDTH 9 0
BBX 7 9 1 0
BITMAP
3C
42
80
80
F8
80
80
42
3C
ENDCHAR
STARTCHAR afii10054
ENCODING 1029
SWIDTH 666 0
DWIDTH 9 0
BBX 7 9 1 0
BITMAP
7C
82
80
80
7C
02
02
82
7C
ENDCHAR
STARTCHAR afii10055
ENCODING 1030
SWIDTH 277 0
DWIDTH 4 0
BBX 1 9 1 0
BITMAP
80
80
80
80
80
80
80
80
80
ENDCHAR
STARTCHAR afii10056
ENCODING 1031
SWIDTH 277 0
DWIDTH 4 0
BBX 4 11 0 0
BITMAP
90
00
40
40
40
40
40
40
40
40
40
ENDCHAR
STARTCHAR afii10057
ENCODING 1032
SWIDTH 500 0
DWIDTH 6 0
BBX 5 9 0 0
BITMAP
38
08
08
08
08
08
08
88
70
ENDCHAR
STARTCHAR afii10058
ENCODING 1033
SWIDTH 1057 0
DWIDTH 14 0
BBX 13 9 0 0
BITMAP
3E00
2200
2200
2200
23F0
2208
4208
4208
83F0
ENDCHAR
STARTCHAR afii10059
ENCODING 1034
SWIDTH 1010 0
DWIDTH 13 0
BBX 11 9 1 0
BITMAP
8400
8400
8400
8400
FFC0
8420
8420
8420
87C0
ENDCHAR
STARTCHAR afii10060
ENCODING 1035
SWIDTH 854 0
DWIDTH 11 0
BBX 10 9 0 0
BITMAP
FF00
1000
1000
1780
1840
1040
1040
1040
1040
ENDCHAR
STARTCHAR afii10061
ENCODING 1036
SWIDTH 582 0
DWIDTH 8 0
BBX 7 12 1 0
BITMAP
08
10
00
82
84
88
90
E0
90
88
84
82
ENDCHAR
STARTCHAR afii10062
ENCODING 1038
SWIDTH 635 0
DWIDTH 8 0
BBX 7 12 1 0
BITMAP
44
38
00
82
44
44
28
28
10
10
20
C0
ENDCHAR
STARTCHAR afii10145
ENCODING 1039
SWIDTH 718 0
DWIDTH 9 0
BBX 7 12 1 -3
BITMAP
82
82
82
82
82
82
82
82
FE
10
10
10
ENDCHAR
STARTCHAR afii10017
ENCODING 1040
SWIDTH 666 0
DWIDTH 9 0
BBX 9 9 0 0
BITMAP
0800
1400
1400
2200
2200
3E00
4100
4100
8080
ENDCHAR
STARTCHAR afii10018
ENCODING 1041
SWIDTH 656 0
DWIDTH 9 0
BBX 7 9 1 0
BITMAP
FC
80
80
80
FC
82
82
82
FC
ENDCHAR
STARTCHAR afii10019
ENCODING 1042
SWIDTH 666 0
DWIDTH 9 0
BBX 7 9 1 0
BITMAP
FC
82
82
82
FC
82
82
82
FC
ENDCHAR
STARTCHAR afii10020
ENCODING 1043
SWIDTH 541 0
DWIDTH 7 0
BBX 5 9 1 0
BITMAP
F8
80
80
80
80
80
80
80
80
ENDCHAR
STARTCHAR afii10021
ENCODING 1044
SWIDTH 677 0
DWIDTH 9 0
BBX 9 12 0 -3
BITMAP
1F00
1100
1100
2100
2100
2100
4100
4100
FF80
8080
8080
8080
ENDCHAR
STARTCHAR afii10022
ENCODING 1045
SWIDTH 666 0
DWIDTH 9 0
BBX 7 9 1 0
BITMAP
FE
80
80
80
FC
80
80
80
FE
ENDCHAR
STARTCHAR afii10024
ENCODING 1046
SWIDTH 923 0
DWIDTH 12 0
BBX 11 9 0 0
BITMAP
8420
4440
2480
2480
1F00
2480
2480
4440
8420
ENDCHAR
STARTCHAR afii10025
ENCODING 1047
SWIDTH 604 0
DWIDTH 8 0
BBX 6 9 1 0
BITMAP
78
84
04
04
38
0C
04
84
78
ENDCHAR
STARTCHAR afii10026
ENCODING 1048
SWIDTH 718 0
DWIDTH 9 0
BBX 7 9 1 0
BITMAP
82
86
8A
8A
92
A2
A2
C2
82
ENDCHAR
STARTCHAR afii10027
ENCODING 1049
SWIDTH 718 0
DWIDTH 9 0
BBX 7 12 1 0
BITMAP
44
38
00
82
86
8A
8A
92
A2
A2
C2
82
ENDCHAR
STARTCHAR afii10028
ENCODING 1050
SWIDTH 582 0
DWIDTH 8 0
BBX 7 9 1 0
BITMAP
82
84
88
90
E0
90
88
84
82
ENDCHAR
STARTCHAR afii10029
ENCODING 1051
SWIDTH 656 0
DWIDTH 9 0
BBX 8 9 0 0
BITMAP
3F
21
21
21
21
21
41
41
81
ENDCHAR
STARTCHAR afii10030
ENCODING 1052
SWIDTH 833 0
DWIDTH 11 0
BBX 9 9 1 0
BITMAP
8080
C180
C180
A280
A280
9480
9480
8880
8880
ENDCHAR
STARTCHAR afii10031
ENCODING 1053
SWIDTH 722 0
DWIDTH 9 0
BBX 7 9 1 0
BITMAP
82
82
82
82
FE
82
82
82
82
ENDCHAR
STARTCHAR afii10032
ENCODING 1054
SWIDTH 777 0
DWIDTH 10 0
BBX 8 9 1 0
BITMAP
3C
42
81
81
81
81
81
42
3C
ENDCHAR
STARTCHAR afii10033
ENCODING 1055
SWIDTH 718 0
DWIDTH 9 0
BBX 7 9 1 0
BITMAP
FE
82
82
82
82
82
82
82
82
ENDCHAR
STARTCHAR afii10034
ENCODING 1056
SWIDTH 666 0
DWIDTH 9 0
BBX 7 9 1 0
BITMAP
FC
82
82
82
FC
80
80
80
80
ENDCHAR
STARTCHAR afii10035
ENCODING 1057
SWIDTH 722 0
DWIDTH 9 0
BBX 7 9 1 0
BITMAP
3C
42
80
80
80
80
80
42
3C
ENDCHAR
STARTCHAR afii10036
ENCODING 1058
SWIDTH 610 0
DWIDTH 8 0
BBX 7 9 0 0
BITMAP
FE
10
10
10
10
10
10
10
10
ENDCHAR
STARTCHAR afii10037
ENCODING 1059
SWIDTH 635 0
DWIDTH 8 0
BBX 7 9 1 0
BITMAP
82
44
44
28
28
10
10
20
C0
ENDCHAR
STARTCHAR afii10038
ENCODING 1060
SWIDTH 760 0
DWIDTH 10 0
BBX 9 9 1 0
BITMAP
0800
3E00
4900
8880
8880
8880
4900
3E00
0800
ENDCHAR
STARTCHAR afii10039
ENCODING 1061
SWIDTH 666 0
DWIDTH 9 0
BBX 7 9 0 0
BITMAP
82
44
28
30
10
28
28
44
82
ENDCHAR
STARTCHAR afii10040
ENCODING 1062
SWIDTH 739 0
DWIDTH 10 0
BBX 8 12 1 -3
BITMAP
82
82
82
82
82
82
82
82
FF
01
01
01
ENDCHAR
STARTCHAR afii10041
ENCODING 1063
SWIDTH 666 0
DWIDTH 9 0
BBX 7 9 1 0
BITMAP
82
82
82
82
86
7A
02
02
02
ENDCHAR
STARTCHAR afii10042
ENCODING 1064
SWIDTH 916 0
DWIDTH 12 0
BBX 9 9 1 0
BITMAP
8880
8880
8880
8880
8880
8880
8880
8880
FF80
ENDCHAR
STARTCHAR afii10043
ENCODING 1065
SWIDTH 937 0
DWIDTH 12 0
BBX 10 12 1 -3
BITMAP
8880
8880
8880
8880
8880
8880
8880
8880
FFC0
0040
0040
0040
ENDCHAR
STARTCHAR afii10044
ENCODING 1066
SWIDTH 791 0
DWIDTH 10 0
BBX 9 9 0 0
BITMAP
F000
1000
1000
1000
1F00
1080
1080
1080
1F00
ENDCHAR
STARTCHAR afii10045
ENCODING 1067
SWIDTH 885 0
DWIDTH 12 0
BBX 9 9 1 0
BITMAP
8080
8080
8080
8080
FC80
8280
8280
8280
FC80
ENDCHAR
STARTCHAR afii10046
ENCODING 1068
SWIDTH 656 0
DWIDTH 9 0
BBX 6 9 1 0
BITMAP
80
80
80
80
F8
84
84
84
F8
ENDCHAR
STARTCHAR afii10047
ENCODING 1069
SWIDTH 718 0
DWIDTH 9 0
BBX 7 9 1 0
BITMAP
78
C4
02
02
3E
02
02
84
78
ENDCHAR
STARTCHAR afii10048
ENCODING 1070
SWIDTH 1010 0
DWIDTH 13 0
BBX 11 9 1 0
BITMAP
8780
8840
9020
9020
F020
9020
9020
8840
8780
ENDCHAR
STARTCHAR afii10049
ENCODING 1071
SWIDTH 722 0
DWIDTH 9 0
BBX 7 9 1 0
BITMAP
7E
82
82
82
7E
12
22
42
82
ENDCHAR
STARTCHAR afii10065
ENCODING 1072
SWIDTH 556 0
DWIDTH 7 0
BBX 6 7 1 0
BITMAP
70
88
08
78
88
98
64
ENDCHAR
STARTCHAR afii10066
ENCODING 1073
SWIDTH 572 0
DWIDTH 7 0
BBX 5 9 1 0
BITMAP
38
40
80
F0
88
88
88
88
70
ENDCHAR
STARTCHAR afii10067
ENCODING 1074
SWIDTH 531 0
DWIDTH 7 0
BBX 5 7 1 0
BITMAP
F0
88
88
F0
88
88
F0
ENDCHAR
STARTCHAR afii10068
ENCODING 1075
SWIDTH 364 0
DWIDTH 5 0
BBX 4 7 1 0
BITMAP
F0
80
80
80
80
80
80
ENDCHAR
STARTCHAR afii10069
ENCODING 1076
SWIDTH 583 0
DWIDTH 8 0
BBX 7 10 0 -3
BITMAP
3C
24
24
24
44
44
FE
82
82
82
ENDCHAR
STARTCHAR afii10070
ENCODING 1077
SWIDTH 556 0
DWIDTH 7 0
BBX 5 7 1 0
BITMAP
70
88
88
F8
80
88
70
ENDCHAR
STARTCHAR afii10072
ENCODING 1078
SWIDTH 668 0
DWIDTH 9 0
BBX 9 7 0 0
BITMAP
8880
4900
2A00
1C00
2A00
4900
8880
ENDCHAR
STARTCHAR afii10073
ENCODING 1079
SWIDTH 458 0
DWIDTH 6 0
BBX 4 7 1 0
BITMAP
60
90
10
60
10
90
60
ENDCHAR
STARTCHAR afii10074
ENCODING 1080
SWIDTH 558 0
DWIDTH 7 0
BBX 5 7 1 0
BITMAP
88
98
A8
A8
C8
C8
88
ENDCHAR
STARTCHAR afii10075
ENCODING 1081
SWIDTH 558 0
DWIDTH 7 0
BBX 5 10 1 0
BITMAP
88
70
00
88
98
A8
A8
C8
C8
88
ENDCHAR
STARTCHAR afii10076
ENCODING 1082
SWIDTH 437 0
DWIDTH 6 0
BBX 5 7 1 0
BITMAP
88
90
A0
C0
A0
90
88
ENDCHAR
STARTCHAR afii10077
ENCODING 1083
SWIDTH 583 0
DWIDTH 8 0
BBX 6 7 0 0
BITMAP
3C
24
24
24
44
44
84
ENDCHAR
STARTCHAR afii10078
ENCODING 1084
SWIDTH 687 0
DWIDTH 9 0
BBX 7 7 1 0
BITMAP
82
C6
CA
AA
AA
92
92
ENDCHAR
STARTCHAR afii10079
ENCODING 1085
SWIDTH 552 0
DWIDTH 7 0
BBX 5 7 1 0
BITMAP
88
88
88
F8
88
88
88
ENDCHAR
STARTCHAR afii10080
ENCODING 1086
SWIDTH 556 0
DWIDTH 7 0
BBX 5 7 1 0
BITMAP
70
88
88
88
88
88
70
ENDCHAR
STARTCHAR afii10081
ENCODING 1087
SWIDTH 541 0
DWIDTH 7 0
BBX 5 7 1 0
BITMAP
F8
88
88
88
88
88
88
ENDCHAR
STARTCHAR afii10082
ENCODING 1088
SWIDTH 556 0
DWIDTH 7 0
BBX 5 10 1 -3
BITMAP
B0
C8
88
88
88
88
F0
80
80
80
ENDCHAR
STARTCHAR afii10083
ENCODING 1089
SWIDTH 500 0
DWIDTH 6 0
BBX 5 7 1 0
BITMAP
70
88
80
80
80
88
70
ENDCHAR
STARTCHAR afii10084
ENCODING 1090
SWIDTH 458 0
DWIDTH 6 0
BBX 5 7 0 0
BITMAP
F8
20
20
20
20
20
20
ENDCHAR
STARTCHAR afii10085
ENCODING 1091
SWIDTH 500 0
DWIDTH 6 0
BBX 7 10 0 -3
BITMAP
82
82
44
44
28
28
10
10
20
C0
ENDCHAR
STARTCHAR afii10086
ENCODING 1092
SWIDTH 822 0
DWIDTH 11 0
BBX 9 12 0 -3
BITMAP
0800
0800
6B00
9C80
8880
8880
8880
8880
7F00
0800
0800
0800
ENDCHAR
STARTCHAR afii10087
ENCODING 1093
SWIDTH 500 0
DWIDTH 6 0
BBX 5 7 1 0
BITMAP
88
50
50
20
50
50
88
ENDCHAR
STARTCHAR afii10088
ENCODING 1094
SWIDTH 572 0
DWIDTH 7 0
BBX 6 10 1 -3
BITMAP
88
88
88
88
88
88
FC
04
04
04
ENDCHAR
STARTCHAR afii10089
ENCODING 1095
SWIDTH 520 0
DWIDTH 7 0
BBX 5 7 1 0
BITMAP
88
88
88
88
78
08
08
ENDCHAR
STARTCHAR afii10090
ENCODING 1096
SWIDTH 802 0
DWIDTH 10 0
BBX 9 7 1 0
BITMAP
8880
8880
8880
8880
8880
8880
FF80
ENDCHAR
STARTCHAR afii10091
ENCODING 1097
SWIDTH 822 0
DWIDTH 11 0
BBX 10 10 1 -3
BITMAP
8880
8880
8880
8880
8880
8880
FFC0
0040
0040
0040
ENDCHAR
STARTCHAR afii10092
ENCODING 1098
SWIDTH 625 0
DWIDTH 8 0
BBX 7 7 0 0
BITMAP
E0
20
20
3C
22
22
3C
ENDCHAR
STARTCHAR afii10093
ENCODING 1099
SWIDTH 718 0
DWIDTH 9 0
BBX 7 7 1 0
BITMAP
82
82
82
F2
8A
8A
F2
ENDCHAR
STARTCHAR afii10094
ENCODING 1100
SWIDTH 520 0
DWIDTH 7 0
BBX 5 7 1 0
BITMAP
80
80
80
F0
88
88
F0
ENDCHAR
STARTCHAR afii10095
ENCODING 1101
SWIDTH 510 0
DWIDTH 7 0
BBX 5 7 1 0
BITMAP
70
88
08
38
08
88
70
ENDCHAR
STARTCHAR afii10096
ENCODING 1102
SWIDTH 750 0
DWIDTH 10 0
BBX 8 7 1 0
BITMAP
8E
91
91
F1
91
91
8E
ENDCHAR
STARTCHAR afii10097
ENCODING 1103
SWIDTH 541 0
DWIDTH 7 0
BBX 6 7 0 0
BITMAP
7C
84
84
7C
24
44
84
ENDCHAR
STARTCHAR afii10071
ENCODING 1105
SWIDTH 556 0
DWIDTH 7 0
BBX 5 9 1 0
BITMAP
50
00
70
88
88
F8
80
88
70
ENDCHAR
STARTCHAR afii10099
ENCODING 1106
SWIDTH 556 0
DWIDTH 7 0
BBX 6 12 0 -3
BITMAP
40
F0
40
58
64
44
44
44
44
04
04
08
ENDCHAR
STARTCHAR afii10100
ENCODING 1107
SWIDTH 364 0
DWIDTH 5 0
BBX 4 10 1 0
BITMAP
20
40
00
F0
80
80
80
80
80
80
ENDCHAR
STARTCHAR afii10101
ENCODING 1108
SWIDTH 510 0
DWIDTH 7 0
BBX 5 7 1 0
BITMAP
70
88
80
E0
80
88
70
ENDCHAR
STARTCHAR afii10102
ENCODING 1109
SWIDTH 500 0
DWIDTH 6 0
BBX 5 7 1 0
BITMAP
70
88
80
70
08
88
70
ENDCHAR
STARTCHAR afii10103
ENCODING 1110
SWIDTH 222 0
DWIDTH 3 0
BBX 1 9 1 0
BITMAP
80
00
80
80
80
80
80
80
80
ENDCHAR
STARTCHAR afii10104
ENCODING 1111
SWIDTH 277 0
DWIDTH 4 0
BBX 3 9 0 0
BITMAP
A0
00
40
40
40
40
40
40
40
ENDCHAR
STARTCHAR afii10105
ENCODING 1112
SWIDTH 222 0
DWIDTH 3 0
BBX 2 12 0 -3
BITMAP
40
00
40
40
40
40
40
40
40
40
40
80
ENDCHAR
STARTCHAR afii10106
ENCODING 1113
SWIDTH 906 0
DWIDTH 12 0
BBX 11 7 0 0
BITMAP
3E00
2200
2200
23C0
4220
4220
83C0
ENDCHAR
STARTCHAR afii10107
ENCODING 1114
SWIDTH 812 0
DWIDTH 11 0
BBX 9 7 1 0
BITMAP
8800
8800
8800
FF00
8880
8880
8F00
ENDCHAR
STARTCHAR afii10108
ENCODING 1115
SWIDTH 556 0
DWIDTH 7 0
BBX 6 9 0 0
BITMAP
40
F0
40
58
64
44
44
44
44
ENDCHAR
STARTCHAR afii10109
ENCODING 1116
SWIDTH 437 0
DWIDTH 6 0
BBX 5 10 1 0
BITMAP
10
20
00
88
90
A0
C0
A0
90
88
ENDCHAR
STARTCHAR afii10110
ENCODING 1118
SWIDTH 500 0
DWIDTH 6 0
BBX 7 13 0 -3
BITMAP
44
38
00
82
82
44
44
28
28
10
10
20
C0
ENDCHAR
STARTCHAR afii10193
ENCODING 1119
SWIDTH 552 0
DWIDTH 7 0
BBX 5 10 1 -3
BITMAP
88
88
88
88
88
88
F8
20
20
20
ENDCHAR
STARTCHAR afii10050
ENCODING 1168
SWIDTH 488 0
DWIDTH 6 0
BBX 5 12 1 0
BITMAP
08
08
08
F8
80
80
80
80
80
80
80
80
ENDCHAR
STARTCHAR afii10098
ENCODING 1169
SWIDTH 411 0
DWIDTH 5 0
BBX 4 9 1 0
BITMAP
10
10
F0
80
80
80
80
80
80
ENDCHAR
STARTCHAR Wgrave
ENCODING 7808
SWIDTH 943 0
DWIDTH 12 0
BBX 13 12 0 0
BITMAP
0400
0200
0000
8208
4210
4510
4510
28A0
28A0
28A0
1040
1040
ENDCHAR
STARTCHAR wgrave
ENCODING 7809
SWIDTH 722 0
DWIDTH 9 0
BBX 9 10 0 0
BITMAP
1000
0800
0000
8880
8880
5500
5500
5500
2200
2200
ENDCHAR
STARTCHAR Wacute
ENCODING 7810
SWIDTH 943 0
DWIDTH 12 0
BBX 13 12 0 0
BITMAP
0100
0200
0000
8208
4210
4510
4510
28A0
28A0
28A0
1040
1040
ENDCHAR
STARTCHAR wacute
ENCODING 7811
SWIDTH 722 0
DWIDTH 9 0
BBX 9 10 0 0
BITMAP
0400
0800
0000
8880
8880
5500
5500
5500
2200
2200
ENDCHAR
STARTCHAR Wdieresis
ENCODING 7812
SWIDTH 943 0
DWIDTH 12 0
BBX 13 11 0 0
BITMAP
0480
0000
8208
4210
4510
4510
28A0
28A0
28A0
1040
1040
ENDCHAR
STARTCHAR wdieresis
ENCODING 7813
SWIDTH 722 0
DWIDTH 9 0
BBX 9 9 0 0
BITMAP
1400
0000
8880
8880
5500
5500
5500
2200
2200
ENDCHAR
STARTCHAR Ygrave
ENCODING 7922
SWIDTH 666 0
DWIDTH 9 0
BBX 7 12 1 0
BITMAP
20
10
00
82
44
48
28
10
10
10
10
10
ENDCHAR
STARTCHAR ygrave
ENCODING 7923
SWIDTH 500 0
DWIDTH 6 0
BBX 7 13 0 -3
BITMAP
20
10
00
82
82
44
44
28
28
10
10
20
C0
ENDCHAR
STARTCHAR endash
ENCODING 8211
SWIDTH 556 0
DWIDTH 7 0
BBX 7 1 0 3
BITMAP
FE
ENDCHAR
STARTCHAR emdash
ENCODING 8212
SWIDTH 1000 0
DWIDTH 13 0
BBX 13 1 0 3
BITMAP
FFF8
ENDCHAR
STARTCHAR afii00208
ENCODING 8213
SWIDTH 1000 0
DWIDTH 13 0
BBX 13 1 0 3
BITMAP
FFF8
ENDCHAR
STARTCHAR underscoredbl
ENCODING 8215
SWIDTH 552 0
DWIDTH 7 0
BBX 7 2 0 -3
BITMAP
FE
FE
ENDCHAR
STARTCHAR quoteleft
ENCODING 8216
SWIDTH 222 0
DWIDTH 3 0
BBX 2 3 1 6
BITMAP
40
80
80
ENDCHAR
STARTCHAR quoteright
ENCODING 8217
SWIDTH 222 0
DWIDTH 3 0
BBX 2 3 0 6
BITMAP
40
40
80
ENDCHAR
STARTCHAR quotesinglbase
ENCODING 8218
SWIDTH 222 0
DWIDTH 3 0
BBX 2 3 0 -2
BITMAP
40
40
80
ENDCHAR
STARTCHAR quotereversed
ENCODING 8219
SWIDTH 222 0
DWIDTH 3 0
BBX 2 3 1 6
BITMAP
80
80
40
ENDCHAR
STARTCHAR quotedblleft
ENCODING 8220
SWIDTH 333 0
DWIDTH 4 0
BBX 4 3 0 6
BITMAP
50
A0
A0
ENDCHAR
STARTCHAR quotedblright
ENCODING 8221
SWIDTH 333 0
DWIDTH 4 0
BBX 4 3 0 6
BITMAP
50
50
A0
ENDCHAR
STARTCHAR quotedblbase
ENCODING 8222
SWIDTH 333 0
DWIDTH 4 0
BBX 4 3 0 -2
BITMAP
50
50
A0
ENDCHAR
STARTCHAR dagger
ENCODING 8224
SWIDTH 556 0
DWIDTH 7 0
BBX 5 10 1 -1
BITMAP
20
20
F8
20
20
20
20
20
20
20
ENDCHAR
STARTCHAR daggerdbl
ENCODING 8225
SWIDTH 556 0
DWIDTH 7 0
BBX 5 10 1 -1
BITMAP
20
20
F8
20
20
20
20
F8
20
20
ENDCHAR
STARTCHAR bullet
ENCODING 8226
SWIDTH 350 0
DWIDTH 5 0
BBX 4 4 1 2
BITMAP
60
F0
F0
60
ENDCHAR
STARTCHAR ellipsis
ENCODING 8230
SWIDTH 1000 0
DWIDTH 13 0
BBX 9 1 2 0
BITMAP
8880
ENDCHAR
STARTCHAR perthousand
ENCODING 8240
SWIDTH 1000 0
DWIDTH 13 0
BBX 14 9 0 0
BITMAP
6100
9200
9400
9400
6B18
14A4
14A4
24A4
4318
ENDCHAR
STARTCHAR minute
ENCODING 8242
SWIDTH 187 0
DWIDTH 2 0
BBX 2 3 1 6
BITMAP
40
40
80
ENDCHAR
STARTCHAR second
ENCODING 8243
SWIDTH 354 0
DWIDTH 5 0
BBX 4 3 1 6
BITMAP
50
50
A0
ENDCHAR
STARTCHAR guilsinglleft
ENCODING 8249
SWIDTH 333 0
DWIDTH 4 0
BBX 3 5 0 1
BITMAP
20
40
80
40
20
ENDCHAR
STARTCHAR guilsinglright
ENCODING 8250
SWIDTH 333 0
DWIDTH 4 0
BBX 3 5 1 1
BITMAP
80
40
20
40
80
ENDCHAR
STARTCHAR exclamdbl
ENCODING 8252
SWIDTH 500 0
DWIDTH 6 0
BBX 4 9 5 0
BITMAP
90
90
90
90
90
90
90
00
90
ENDCHAR
STARTCHAR uni203E
ENCODING 8254
SWIDTH 333 0
DWIDTH 4 0
BBX 5 1 0 10
BITMAP
F8
ENDCHAR
STARTCHAR fraction
ENCODING 8260
SWIDTH 166 0
DWIDTH 2 0
BBX 6 9 -2 0
BITMAP
04
08
08
10
20
20
40
40
80
ENDCHAR
STARTCHAR uni207F
ENCODING 8319
SWIDTH 364 0
DWIDTH 5 0
BBX 3 5 1 4
BITMAP
C0
A0
A0
A0
A0
ENDCHAR
STARTCHAR franc
ENCODING 8355
SWIDTH 556 0
DWIDTH 7 0
BBX 6 9 0 0
BITMAP
7C
40
40
40
7C
40
F0
40
40
ENDCHAR
STARTCHAR lira
ENCODING 8356
SWIDTH 556 0
DWIDTH 7 0
BBX 6 9 1 0
BITMAP
38
44
40
F0
40
F0
40
44
F8
ENDCHAR
STARTCHAR peseta
ENCODING 8359
SWIDTH 1093 0
DWIDTH 14 0
BBX 13 9 1 0
BITMAP
F000
8800
8A00
8A00
F738
8240
8230
8208
8170
ENDCHAR
STARTCHAR Euro
ENCODING 8364
SWIDTH 556 0
DWIDTH 7 0
BBX 7 9 0 0
BITMAP
3C
42
40
F8
40
F8
40
42
3C
ENDCHAR
STARTCHAR afii61248
ENCODING 8453
SWIDTH 885 0
DWIDTH 12 0
BBX 10 9 1 0
BITMAP
6100
9200
8200
9400
6980
0A40
1240
1240
2180
ENDCHAR
STARTCHAR afii61289
ENCODING 8467
SWIDTH 323 0
DWIDTH 4 0
BBX 4 9 0 0
BITMAP
20
50
50
50
60
C0
40
50
20
ENDCHAR
STARTCHAR afii61352
ENCODING 8470
SWIDTH 1072 0
DWIDTH 14 0
BBX 12 9 1 0
BITMAP
8200
C200
A260
A290
9290
8A90
8A60
8600
82F0
ENDCHAR
STARTCHAR trademark
ENCODING 8482
SWIDTH 1000 0
DWIDTH 13 0
BBX 11 5 1 4
BITMAP
E820
4C60
4AA0
4AA0
4920
ENDCHAR
STARTCHAR Omega
ENCODING 8486
SWIDTH 768 0
DWIDTH 10 0
BBX 8 9 1 0
BITMAP
3C
42
81
81
81
81
42
24
E7
ENDCHAR
STARTCHAR estimated
ENCODING 8494
SWIDTH 600 0
DWIDTH 8 0
BBX 6 7 1 0
BITMAP
78
88
84
FC
80
80
78
ENDCHAR
STARTCHAR oneeighth
ENCODING 8539
SWIDTH 833 0
DWIDTH 11 0
BBX 9 9 1 0
BITMAP
4200
4400
4400
4800
F300
1480
2300
2480
4300
ENDCHAR
STARTCHAR threeeighths
ENCODING 8540
SWIDTH 833 0
DWIDTH 11 0
BBX 10 9 0 0
BITMAP
E100
1200
6200
1400
E980
0A40
1180
1240
2180
ENDCHAR
STARTCHAR fiveeighths
ENCODING 8541
SWIDTH 833 0
DWIDTH 11 0
BBX 10 9 0 0
BITMAP
F100
8200
E200
1400
E980
0A40
1180
1240
2180
ENDCHAR
STARTCHAR seveneighths
ENCODING 8542
SWIDTH 833 0
DWIDTH 11 0
BBX 9 9 1 0
BITMAP
F200
1400
2400
4800
5300
1480
2300
2480
4300
ENDCHAR
STARTCHAR arrowleft
ENCODING 8592
SWIDTH 1000 0
DWIDTH 13 0
BBX 8 3 3 0
BITMAP
40
FF
40
ENDCHAR
STARTCHAR arrowup
ENCODING 8593
SWIDTH 500 0
DWIDTH 6 0
BBX 3 8 2 -1
BITMAP
40
E0
40
40
40
40
40
40
ENDCHAR
STARTCHAR arrowright
ENCODING 8594
SWIDTH 1000 0
DWIDTH 13 0
BBX 8 3 3 0
BITMAP
02
FF
02
ENDCHAR
STARTCHAR arrowdown
ENCODING 8595
SWIDTH 500 0
DWIDTH 6 0
BBX 3 8 2 -1
BITMAP
40
40
40
40
40
40
E0
40
ENDCHAR
STARTCHAR arrowboth
ENCODING 8596
SWIDTH 1000 0
DWIDTH 13 0
BBX 8 3 3 0
BITMAP
42
FF
42
ENDCHAR
STARTCHAR arrowupdn
ENCODING 8597
SWIDTH 500 0
DWIDTH 6 0
BBX 3 8 2 -1
BITMAP
40
E0
40
40
40
40
E0
40
ENDCHAR
STARTCHAR arrowupdnbse
ENCODING 8616
SWIDTH 500 0
DWIDTH 6 0
BBX 3 10 2 -3
BITMAP
40
E0
40
40
40
40
E0
40
00
E0
ENDCHAR
STARTCHAR partialdiff
ENCODING 8706
SWIDTH 494 0
DWIDTH 6 0
BBX 5 9 1 0
BITMAP
70
18
08
38
48
88
90
90
60
ENDCHAR
STARTCHAR Delta
ENCODING 8710
SWIDTH 611 0
DWIDTH 8 0
BBX 8 9 0 0
BITMAP
18
18
24
24
24
42
42
81
FF
ENDCHAR
STARTCHAR product
ENCODING 8719
SWIDTH 823 0
DWIDTH 11 0
BBX 7 12 2 -3
BITMAP
FE
82
82
82
82
82
82
82
82
82
82
82
ENDCHAR
STARTCHAR summation
ENCODING 8721
SWIDTH 712 0
DWIDTH 9 0
BBX 7 12 1 -3
BITMAP
FE
80
40
20
10
08
08
10
20
40
80
FE
ENDCHAR
STARTCHAR minus
ENCODING 8722
SWIDTH 583 0
DWIDTH 8 0
BBX 6 1 1 4
BITMAP
FC
ENDCHAR
STARTCHAR fraction.dup4
ENCODING 8725
SWIDTH 166 0
DWIDTH 2 0
BBX 6 9 -2 0
BITMAP
04
08
08
10
20
20
40
40
80
ENDCHAR
STARTCHAR periodcentered.dup5
ENCODING 8729
SWIDTH 277 0
DWIDTH 4 0
BBX 1 1 1 3
BITMAP
80
ENDCHAR
STARTCHAR radical
ENCODING 8730
SWIDTH 548 0
DWIDTH 7 0
BBX 7 10 1 0
BITMAP
02
02
04
04
C4
48
28
28
30
10
ENDCHAR
STARTCHAR infinity
ENCODING 8734
SWIDTH 712 0
DWIDTH 9 0
BBX 7 5 1 1
BITMAP
6C
B2
92
B2
6C
ENDCHAR
STARTCHAR orthogonal
ENCODING 8735
SWIDTH 979 0
DWIDTH 13 0
BBX 8 8 3 0
BITMAP
80
80
80
80
80
80
80
FF
ENDCHAR
STARTCHAR intersection
ENCODING 8745
SWIDTH 718 0
DWIDTH 9 0
BBX 6 7 2 0
BITMAP
78
88
84
84
84
84
84
ENDCHAR
STARTCHAR integral
ENCODING 8747
SWIDTH 273 0
DWIDTH 4 0
BBX 5 12 -1 -3
BITMAP
18
20
20
20
20
20
20
20
20
20
20
C0
ENDCHAR
STARTCHAR approxequal
ENCODING 8776
SWIDTH 548 0
DWIDTH 7 0
BBX 5 5 1 2
BITMAP
68
10
00
68
90
ENDCHAR
STARTCHAR notequal
ENCODING 8800
SWIDTH 548 0
DWIDTH 7 0
BBX 7 8 0 0
BITMAP
04
08
FE
10
10
FE
40
40
ENDCHAR
STARTCHAR equivalence
ENCODING 8801
SWIDTH 583 0
DWIDTH 8 0
BBX 6 5 1 2
BITMAP
FC
00
FC
00
FC
ENDCHAR
STARTCHAR lessequal
ENCODING 8804
SWIDTH 548 0
DWIDTH 7 0
BBX 5 7 1 0
BITMAP
08
70
80
60
18
00
F8
ENDCHAR
STARTCHAR greaterequal
ENCODING 8805
SWIDTH 548 0
DWIDTH 7 0
BBX 5 7 1 0
BITMAP
80
70
08
30
C0
00
F8
ENDCHAR
STARTCHAR house
ENCODING 8962
SWIDTH 604 0
DWIDTH 8 0
BBX 6 7 1 0
BITMAP
30
48
84
84
84
84
FC
ENDCHAR
STARTCHAR revlogicalnot
ENCODING 8976
SWIDTH 583 0
DWIDTH 8 0
BBX 6 4 1 1
BITMAP
FC
80
80
80
ENDCHAR
STARTCHAR integraltp
ENCODING 8992
SWIDTH 604 0
DWIDTH 8 0
BBX 3 15 3 -4
BITMAP
60
80
80
80
80
80
80
80
80
80
80
80
80
80
80
ENDCHAR
STARTCHAR integralbt
ENCODING 8993
SWIDTH 604 0
DWIDTH 8 0
BBX 3 15 1 -4
BITMAP
20
20
20
20
20
20
20
20
20
20
20
20
20
20
C0
ENDCHAR
STARTCHAR SF100000
ENCODING 9472
SWIDTH 708 0
DWIDTH 9 0
BBX 9 1 0 3
BITMAP
FF80
ENDCHAR
STARTCHAR SF110000
ENCODING 9474
SWIDTH 625 0
DWIDTH 8 0
BBX 1 16 4 -4
BITMAP
80
80
80
80
80
80
80
80
80
80
80
80
80
80
80
80
ENDCHAR
STARTCHAR SF010000
ENCODING 9484
SWIDTH 708 0
DWIDTH 9 0
BBX 5 8 4 -4
BITMAP
F8
80
80
80
80
80
80
80
ENDCHAR
STARTCHAR SF030000
ENCODING 9488
SWIDTH 708 0
DWIDTH 9 0
BBX 5 8 0 -4
BITMAP
F8
08
08
08
08
08
08
08
ENDCHAR
STARTCHAR SF020000
ENCODING 9492
SWIDTH 708 0
DWIDTH 9 0
BBX 5 9 4 3
BITMAP
80
80
80
80
80
80
80
80
F8
ENDCHAR
STARTCHAR SF040000
ENCODING 9496
SWIDTH 708 0
DWIDTH 9 0
BBX 5 9 0 3
BITMAP
08
08
08
08
08
08
08
08
F8
ENDCHAR
STARTCHAR SF080000
ENCODING 9500
SWIDTH 708 0
DWIDTH 9 0
BBX 5 16 4 -4
BITMAP
80
80
80
80
80
80
80
80
F8
80
80
80
80
80
80
80
ENDCHAR
STARTCHAR SF090000
ENCODING 9508
SWIDTH 708 0
DWIDTH 9 0
BBX 5 16 0 -4
BITMAP
08
08
08
08
08
08
08
08
F8
08
08
08
08
08
08
08
ENDCHAR
STARTCHAR SF060000
ENCODING 9516
SWIDTH 708 0
DWIDTH 9 0
BBX 9 8 0 -4
BITMAP
FF80
0800
0800
0800
0800
0800
0800
0800
ENDCHAR
STARTCHAR SF070000
ENCODING 9524
SWIDTH 708 0
DWIDTH 9 0
BBX 9 9 0 3
BITMAP
0800
0800
0800
0800
0800
0800
0800
0800
FF80
ENDCHAR
STARTCHAR SF050000
ENCODING 9532
SWIDTH 708 0
DWIDTH 9 0
BBX 9 16 0 -4
BITMAP
0800
0800
0800
0800
0800
0800
0800
0800
FF80
0800
0800
0800
0800
0800
0800
0800
ENDCHAR
STARTCHAR SF430000
ENCODING 9552
SWIDTH 708 0
DWIDTH 9 0
BBX 9 3 0 2
BITMAP
FF80
0000
FF80
ENDCHAR
STARTCHAR SF240000
ENCODING 9553
SWIDTH 708 0
DWIDTH 9 0
BBX 3 16 3 -4
BITMAP
A0
A0
A0
A0
A0
A0
A0
A0
A0
A0
A0
A0
A0
A0
A0
A0
ENDCHAR
STARTCHAR SF510000
ENCODING 9554
SWIDTH 708 0
DWIDTH 9 0
BBX 5 9 4 -4
BITMAP
F8
80
F8
80
80
80
80
80
80
ENDCHAR
STARTCHAR SF520000
ENCODING 9555
SWIDTH 708 0
DWIDTH 9 0
BBX 6 8 3 -4
BITMAP
FC
A0
A0
A0
A0
A0
A0
A0
ENDCHAR
STARTCHAR SF390000
ENCODING 9556
SWIDTH 708 0
DWIDTH 9 0
BBX 6 9 3 -4
BITMAP
FC
80
BC
A0
A0
A0
A0
A0
A0
ENDCHAR
STARTCHAR SF220000
ENCODING 9557
SWIDTH 708 0
DWIDTH 9 0
BBX 5 9 0 -4
BITMAP
F8
08
F8
08
08
08
08
08
08
ENDCHAR
STARTCHAR SF210000
ENCODING 9558
SWIDTH 708 0
DWIDTH 9 0
BBX 6 8 0 -4
BITMAP
FC
14
14
14
14
14
14
14
ENDCHAR
STARTCHAR SF250000
ENCODING 9559
SWIDTH 708 0
DWIDTH 9 0
BBX 6 9 0 -4
BITMAP
FC
04
F4
14
14
14
14
14
14
ENDCHAR
STARTCHAR SF500000
ENCODING 9560
SWIDTH 708 0
DWIDTH 9 0
BBX 5 10 4 2
BITMAP
80
80
80
80
80
80
80
F8
80
F8
ENDCHAR
STARTCHAR SF490000
ENCODING 9561
SWIDTH 708 0
DWIDTH 9 0
BBX 6 9 3 3
BITMAP
A0
A0
A0
A0
A0
A0
A0
A0
FC
ENDCHAR
STARTCHAR SF380000
ENCODING 9562
SWIDTH 708 0
DWIDTH 9 0
BBX 6 10 3 2
BITMAP
A0
A0
A0
A0
A0
A0
A0
BC
80
FC
ENDCHAR
STARTCHAR SF280000
ENCODING 9563
SWIDTH 708 0
DWIDTH 9 0
BBX 5 10 0 2
BITMAP
08
08
08
08
08
08
08
F8
08
F8
ENDCHAR
STARTCHAR SF270000
ENCODING 9564
SWIDTH 708 0
DWIDTH 9 0
BBX 6 9 0 3
BITMAP
14
14
14
14
14
14
14
14
FC
ENDCHAR
STARTCHAR SF260000
ENCODING 9565
SWIDTH 708 0
DWIDTH 9 0
BBX 6 10 0 2
BITMAP
14
14
14
14
14
14
14
F4
04
FC
ENDCHAR
STARTCHAR SF360000
ENCODING 9566
SWIDTH 708 0
DWIDTH 9 0
BBX 5 16 4 -4
BITMAP
80
80
80
80
80
80
80
F8
80
F8
80
80
80
80
80
80
ENDCHAR
STARTCHAR SF370000
ENCODING 9567
SWIDTH 708 0
DWIDTH 9 0
BBX 6 16 3 -4
BITMAP
A0
A0
A0
A0
A0
A0
A0
A0
BC
A0
A0
A0
A0
A0
A0
A0
ENDCHAR
STARTCHAR SF420000
ENCODING 9568
SWIDTH 708 0
DWIDTH 9 0
BBX 6 16 3 -4
BITMAP
A0
A0
A0
A0
A0
A0
A0
BC
80
BC
A0
A0
A0
A0
A0
A0
ENDCHAR
STARTCHAR SF190000
ENCODING 9569
SWIDTH 708 0
DWIDTH 9 0
BBX 5 16 0 -4
BITMAP
08
08
08
08
08
08
08
F8
08
F8
08
08
08
08
08
08
ENDCHAR
STARTCHAR SF200000
ENCODING 9570
SWIDTH 708 0
DWIDTH 9 0
BBX 6 16 0 -4
BITMAP
14
14
14
14
14
14
14
14
F4
14
14
14
14
14
14
14
ENDCHAR
STARTCHAR SF230000
ENCODING 9571
SWIDTH 708 0
DWIDTH 9 0
BBX 6 16 0 -4
BITMAP
14
14
14
14
14
14
14
F4
04
F4
14
14
14
14
14
14
ENDCHAR
STARTCHAR SF470000
ENCODING 9572
SWIDTH 708 0
DWIDTH 9 0
BBX 9 9 0 -4
BITMAP
FF80
0000
FF80
0800
0800
0800
0800
0800
0800
ENDCHAR
STARTCHAR SF480000
ENCODING 9573
SWIDTH 708 0
DWIDTH 9 0
BBX 9 8 0 -4
BITMAP
FF80
1400
1400
1400
1400
1400
1400
1400
ENDCHAR
STARTCHAR SF410000
ENCODING 9574
SWIDTH 708 0
DWIDTH 9 0
BBX 9 9 0 -4
BITMAP
FF80
0000
F780
1400
1400
1400
1400
1400
1400
ENDCHAR
STARTCHAR SF450000
ENCODING 9575
SWIDTH 708 0
DWIDTH 9 0
BBX 9 10 0 2
BITMAP
0800
0800
0800
0800
0800
0800
0800
FF80
0000
FF80
ENDCHAR
STARTCHAR SF460000
ENCODING 9576
SWIDTH 708 0
DWIDTH 9 0
BBX 9 9 0 3
BITMAP
1400
1400
1400
1400
1400
1400
1400
1400
FF80
ENDCHAR
STARTCHAR SF400000
ENCODING 9577
SWIDTH 708 0
DWIDTH 9 0
BBX 9 10 0 2
BITMAP
1400
1400
1400
1400
1400
1400
1400
F780
0000
FF80
ENDCHAR
STARTCHAR SF540000
ENCODING 9578
SWIDTH 708 0
DWIDTH 9 0
BBX 9 16 0 -4
BITMAP
0800
0800
0800
0800
0800
0800
0800
FF80
0800
FF80
0800
0800
0800
0800
0800
0800
ENDCHAR
STARTCHAR SF530000
ENCODING 9579
SWIDTH 708 0
DWIDTH 9 0
BBX 9 16 0 -4
BITMAP
1400
1400
1400
1400
1400
1400
1400
1400
FF80
1400
1400
1400
1400
1400
1400
1400
ENDCHAR
STARTCHAR SF440000
ENCODING 9580
SWIDTH 708 0
DWIDTH 9 0
BBX 9 16 0 -4
BITMAP
1400
1400
1400
1400
1400
1400
1400
F780
0000
F780
1400
1400
1400
1400
1400
1400
ENDCHAR
STARTCHAR upblock
ENCODING 9600
SWIDTH 708 0
DWIDTH 9 0
BBX 9 8 0 4
BITMAP
FF80
FF80
FF80
FF80
FF80
FF80
FF80
FF80
ENDCHAR
STARTCHAR dnblock
ENCODING 9604
SWIDTH 708 0
DWIDTH 9 0
BBX 9 8 0 -4
BITMAP
FF80
FF80
FF80
FF80
FF80
FF80
FF80
FF80
ENDCHAR
STARTCHAR block
ENCODING 9608
SWIDTH 708 0
DWIDTH 9 0
BBX 9 16 0 -4
BITMAP
FF80
FF80
FF80
FF80
FF80
FF80
FF80
FF80
FF80
FF80
FF80
FF80
FF80
FF80
FF80
FF80
ENDCHAR
STARTCHAR lfblock
ENCODING 9612
SWIDTH 708 0
DWIDTH 9 0
BBX 5 16 0 -4
BITMAP
F8
F8
F8
F8
F8
F8
F8
F8
F8
F8
F8
F8
F8
F8
F8
F8
ENDCHAR
STARTCHAR rtblock
ENCODING 9616
SWIDTH 708 0
DWIDTH 9 0
BBX 4 16 5 -4
BITMAP
F0
F0
F0
F0
F0
F0
F0
F0
F0
F0
F0
F0
F0
F0
F0
F0
ENDCHAR
STARTCHAR ltshade
ENCODING 9617
SWIDTH 708 0
DWIDTH 9 0
BBX 8 15 1 -4
BITMAP
A5
4A
00
A5
4A
A5
4A
00
A5
4A
A5
4A
00
A5
4A
ENDCHAR
STARTCHAR shade
ENCODING 9618
SWIDTH 708 0
DWIDTH 9 0
BBX 9 13 0 -2
BITMAP
3300
CC80
0000
0000
CC80
3300
CC80
0000
0000
0000
3300
CC80
3300
ENDCHAR
STARTCHAR dkshade
ENCODING 9619
SWIDTH 729 0
DWIDTH 9 0
BBX 9 15 0 -4
BITMAP
3300
EE80
FF80
FF80
EE80
BB80
EE80
FF80
FF80
FF80
BB80
EE80
BB80
FF80
FF80
ENDCHAR
STARTCHAR filledbox
ENCODING 9632
SWIDTH 604 0
DWIDTH 8 0
BBX 6 6 1 1
BITMAP
FC
FC
FC
FC
FC
FC
ENDCHAR
STARTCHAR H22073
ENCODING 9633
SWIDTH 604 0
DWIDTH 8 0
BBX 8 8 0 0
BITMAP
FF
81
81
81
81
81
81
FF
ENDCHAR
STARTCHAR H18543
ENCODING 9642
SWIDTH 354 0
DWIDTH 5 0
BBX 3 3 1 3
BITMAP
E0
E0
E0
ENDCHAR
STARTCHAR H18551
ENCODING 9643
SWIDTH 354 0
DWIDTH 5 0
BBX 3 3 1 3
BITMAP
E0
A0
E0
ENDCHAR
STARTCHAR filledrect
ENCODING 9644
SWIDTH 1000 0
DWIDTH 13 0
BBX 13 4 0 0
BITMAP
FFF8
FFF8
FFF8
FFF8
ENDCHAR
STARTCHAR triagup
ENCODING 9650
SWIDTH 989 0
DWIDTH 13 0
BBX 7 7 3 0
BITMAP
10
30
38
78
7C
FC
FE
ENDCHAR
STARTCHAR triagrt
ENCODING 9658
SWIDTH 989 0
DWIDTH 13 0
BBX 7 7 3 0
BITMAP
C0
F0
FC
FE
F8
E0
80
ENDCHAR
STARTCHAR triagdn
ENCODING 9660
SWIDTH 989 0
DWIDTH 13 0
BBX 7 7 3 0
BITMAP
FE
7C
7C
38
38
10
10
ENDCHAR
STARTCHAR triaglf
ENCODING 9668
SWIDTH 989 0
DWIDTH 13 0
BBX 7 7 3 0
BITMAP
06
1E
7E
FE
3E
0E
02
ENDCHAR
STARTCHAR lozenge
ENCODING 9674
SWIDTH 494 0
DWIDTH 6 0
BBX 6 9 0 0
BITMAP
30
30
48
48
84
48
48
30
30
ENDCHAR
STARTCHAR circle
ENCODING 9675
SWIDTH 604 0
DWIDTH 8 0
BBX 6 6 1 1
BITMAP
78
84
84
84
84
78
ENDCHAR
STARTCHAR H18533
ENCODING 9679
SWIDTH 604 0
DWIDTH 8 0
BBX 6 6 1 0
BITMAP
78
FC
FC
FC
FC
78
ENDCHAR
STARTCHAR invbullet
ENCODING 9688
SWIDTH 604 0
DWIDTH 8 0
BBX 7 7 0 0
BITMAP
FE
C6
82
82
82
C6
FE
ENDCHAR
STARTCHAR invcircle
ENCODING 9689
SWIDTH 604 0
DWIDTH 8 0
BBX 7 7 0 0
BITMAP
FE
C6
BA
BA
BA
C6
FE
ENDCHAR
STARTCHAR openbullet
ENCODING 9702
SWIDTH 354 0
DWIDTH 5 0
BBX 3 3 1 3
BITMAP
E0
A0
E0
ENDCHAR
STARTCHAR smileface
ENCODING 9786
SWIDTH 1020 0
DWIDTH 13 0
BBX 8 8 3 0
BITMAP
3C
42
A5
81
A5
99
42
3C
ENDCHAR
STARTCHAR invsmileface
ENCODING 9787
SWIDTH 1052 0
DWIDTH 14 0
BBX 8 8 3 0
BITMAP
3C
7E
DB
FF
DB
E7
7E
3C
ENDCHAR
STARTCHAR sun
ENCODING 9788
SWIDTH 916 0
DWIDTH 12 0
BBX 7 7 2 0
BITMAP
92
7C
44
C6
44
7C
92
ENDCHAR
STARTCHAR female
ENCODING 9792
SWIDTH 750 0
DWIDTH 10 0
BBX 5 8 3 -1
BITMAP
60
90
90
70
20
F8
20
20
ENDCHAR
STARTCHAR male
ENCODING 9794
SWIDTH 750 0
DWIDTH 10 0
BBX 6 6 2 1
BITMAP
0C
0C
70
90
90
60
ENDCHAR
STARTCHAR spade
ENCODING 9824
SWIDTH 531 0
DWIDTH 7 0
BBX 7 9 0 0
BITMAP
10
10
38
7C
FE
FE
FE
10
38
ENDCHAR
STARTCHAR club
ENCODING 9827
SWIDTH 656 0
DWIDTH 9 0
BBX 8 8 0 0
BITMAP
18
3C
3C
FF
FF
F7
10
3C
ENDCHAR
STARTCHAR heart
ENCODING 9829
SWIDTH 593 0
DWIDTH 8 0
BBX 7 7 0 0
BITMAP
EE
FE
FE
7C
38
10
10
ENDCHAR
STARTCHAR diamond
ENCODING 9830
SWIDTH 510 0
DWIDTH 7 0
BBX 5 8 1 0
BITMAP
20
20
70
F8
F8
70
20
20
ENDCHAR
STARTCHAR musicalnote
ENCODING 9834
SWIDTH 500 0
DWIDTH 6 0
BBX 5 7 1 0
BITMAP
20
30
28
28
28
E0
C0
ENDCHAR
STARTCHAR musicalnotedbl
ENCODING 9835
SWIDTH 750 0
DWIDTH 10 0
BBX 6 7 2 0
BITMAP
0C
74
5C
64
44
CC
CC
ENDCHAR
STARTCHAR uniF001
ENCODING 61441
SWIDTH 500 0
DWIDTH 6 0
BBX 6 9 0 0
BITMAP
34
40
F4
44
44
44
44
44
44
ENDCHAR
STARTCHAR uniF002
ENCODING 61442
SWIDTH 500 0
DWIDTH 6 0
BBX 6 9 0 0
BITMAP
34
44
F4
44
44
44
44
44
44
ENDCHAR
STARTCHAR uniF005
ENCODING 61445
SWIDTH 333 0
DWIDTH 4 0
BBX 2 3 1 -3
BITMAP
80
40
80
ENDCHAR
STARTCHAR uniF001.dup6
ENCODING 64257
SWIDTH 500 0
DWIDTH 6 0
BBX 6 9 0 0
BITMAP
34
40
F4
44
44
44
44
44
44
ENDCHAR
STARTCHAR uniF002.dup7
ENCODING 64258
SWIDTH 500 0
DWIDTH 6 0
BBX 6 9 0 0
BITMAP
34
44
F4
44
44
44
44
44
44
ENDCHAR
STARTCHAR .notdef
ENCODING -1
SWIDTH 750 0
DWIDTH 10 0
BBX 8 9 1 0
BITMAP
FF
81
81
81
81
81
81
81
FF
ENDCHAR
STARTCHAR .null
ENCODING -1
SWIDTH 0 0
DWIDTH 0 0
BBX 1 1 0 0
BITMAP
00
ENDCHAR
STARTCHAR nonmarkingreturn
ENCODING -1
SWIDTH 277 0
DWIDTH 4 0
BBX 1 1 0 0
BITMAP
00
ENDCHAR
STARTCHAR middot
ENCODING -1
SWIDTH 333 0
DWIDTH 4 0
BBX 1 1 2 3
BITMAP
80
ENDCHAR
STARTCHAR uniF004
ENCODING -1
SWIDTH 333 0
DWIDTH 4 0
BBX 2 2 0 -3
BITMAP
40
80
ENDCHAR
STARTCHAR uni2074
ENCODING -1
SWIDTH 333 0
DWIDTH 4 0
BBX 4 5 0 4
BITMAP
20
60
A0
F0
20
ENDCHAR
STARTCHAR uni2075
ENCODING -1
SWIDTH 333 0
DWIDTH 4 0
BBX 4 5 0 4
BITMAP
F0
80
E0
10
E0
ENDCHAR
STARTCHAR uni2077
ENCODING -1
SWIDTH 333 0
DWIDTH 4 0
BBX 4 5 0 4
BITMAP
F0
10
20
40
40
ENDCHAR
STARTCHAR uni2078
ENCODING -1
SWIDTH 333 0
DWIDTH 4 0
BBX 4 5 0 4
BITMAP
60
90
60
90
60
ENDCHAR
STARTCHAR glyph571
ENCODING -1
SWIDTH 333 0
DWIDTH 4 0
BBX 5 2 0 8
BITMAP
88
70
ENDCHAR
STARTCHAR glyph572
ENCODING -1
SWIDTH 222 0
DWIDTH 3 0
BBX 1 2 1 7
BITMAP
80
80
ENDCHAR
STARTCHAR glyph573
ENCODING -1
SWIDTH 222 0
DWIDTH 3 0
BBX 1 2 1 8
BITMAP
80
80
ENDCHAR
STARTCHAR glyph574
ENCODING -1
SWIDTH 293 0
DWIDTH 4 0
BBX 2 2 1 10
BITMAP
80
40
ENDCHAR
STARTCHAR glyph575
ENCODING -1
SWIDTH 293 0
DWIDTH 4 0
BBX 2 2 1 10
BITMAP
40
80
ENDCHAR
STARTCHAR glyph576
ENCODING -1
SWIDTH 324 0
DWIDTH 4 0
BBX 3 2 0 10
BITMAP
40
A0
ENDCHAR
STARTCHAR glyph577
ENCODING -1
SWIDTH 324 0
DWIDTH 4 0
BBX 3 2 0 10
BITMAP
A0
40
ENDCHAR
STARTCHAR glyph578
ENCODING -1
SWIDTH 315 0
DWIDTH 4 0
BBX 4 1 0 10
BITMAP
90
ENDCHAR
STARTCHAR glyph579
ENCODING -1
SWIDTH 328 0
DWIDTH 4 0
BBX 4 2 0 10
BITMAP
50
A0
ENDCHAR
STARTCHAR glyph580
ENCODING -1
SWIDTH 397 0
DWIDTH 5 0
BBX 4 2 1 10
BITMAP
50
A0
ENDCHAR
STARTCHAR glyph581
ENCODING -1
SWIDTH 285 0
DWIDTH 4 0
BBX 4 2 0 10
BITMAP
90
60
ENDCHAR
ENDFONT
